<svg id="svg" xmlns="http://www.w3.org/2000/svg" xmlns:xlink="http://www.w3.org/1999/xlink" viewBox="0, 0, 400,400" version="1.1"><g id="svgg"><path id="path0" d="M280.475 47.616 C 279.994 48.064,279.600 48.694,279.600 49.016 C 279.600 49.337,279.440 49.600,279.244 49.600 C 278.588 49.600,278.300 52.537,278.134 60.914 C 278.031 66.089,277.824 69.138,277.584 68.990 C 277.373 68.860,277.200 68.403,277.200 67.976 C 277.200 67.475,276.925 67.200,276.424 67.200 C 275.997 67.200,275.536 67.020,275.400 66.800 C 274.727 65.711,271.200 67.749,271.200 69.226 C 271.200 69.658,270.977 70.368,270.704 70.805 C 270.309 71.438,270.309 71.762,270.704 72.395 C 270.977 72.832,271.200 73.811,271.200 74.571 C 271.200 75.331,271.366 76.055,271.569 76.181 C 271.772 76.306,272.057 76.947,272.201 77.605 C 272.345 78.262,272.629 78.800,272.832 78.800 C 273.034 78.800,273.200 80.510,273.200 82.600 C 273.200 84.867,273.361 86.400,273.600 86.400 C 273.820 86.400,274.000 86.760,274.000 87.200 C 274.000 87.640,274.180 88.000,274.400 88.000 C 274.620 88.000,274.800 88.336,274.800 88.746 C 274.800 89.157,275.788 90.520,276.995 91.777 C 279.737 94.631,280.800 96.942,280.800 100.051 C 280.800 101.350,280.979 102.400,281.200 102.400 C 281.425 102.400,281.600 103.525,281.600 104.976 C 281.600 106.393,281.780 107.664,282.000 107.800 C 282.229 107.941,282.400 109.996,282.400 112.600 C 282.400 115.204,282.571 117.259,282.800 117.400 C 283.020 117.536,283.200 118.149,283.200 118.762 C 283.200 120.957,284.253 121.356,289.095 120.992 C 294.120 120.614,301.229 120.620,304.484 121.003 C 306.856 121.283,309.194 119.434,307.990 118.230 C 307.776 118.016,307.600 117.426,307.600 116.920 C 307.600 116.414,307.420 116.000,307.200 116.000 C 306.980 116.000,306.800 115.640,306.800 115.200 C 306.800 114.760,306.620 114.400,306.400 114.400 C 306.180 114.400,306.000 114.040,306.000 113.600 C 306.000 113.160,305.820 112.800,305.600 112.800 C 305.380 112.800,305.200 112.440,305.200 112.000 C 305.200 111.560,305.023 111.200,304.808 111.200 C 304.592 111.200,304.302 110.750,304.164 110.200 C 304.026 109.650,303.753 109.200,303.557 109.200 C 303.360 109.200,303.200 108.930,303.200 108.600 C 303.200 108.270,303.020 108.000,302.800 108.000 C 302.580 108.000,302.400 107.730,302.400 107.400 C 302.400 107.070,302.220 106.800,302.000 106.800 C 301.780 106.800,301.600 106.440,301.600 106.000 C 301.600 105.560,301.464 105.200,301.298 105.200 C 301.131 105.200,300.771 104.694,300.497 104.075 C 300.224 103.456,299.640 102.564,299.200 102.092 C 298.760 101.620,298.400 101.081,298.400 100.895 C 298.400 100.709,297.770 99.946,297.000 99.200 C 296.230 98.454,295.600 97.648,295.600 97.410 C 295.600 97.172,295.240 96.717,294.800 96.400 C 294.360 96.083,294.000 95.503,294.000 95.112 C 294.000 94.720,293.820 94.400,293.600 94.400 C 293.380 94.400,293.200 94.130,293.200 93.800 C 293.200 93.470,293.020 93.200,292.800 93.200 C 292.580 93.200,292.400 92.840,292.400 92.400 C 292.400 91.960,292.220 91.600,292.000 91.600 C 291.780 91.600,291.600 91.240,291.600 90.800 C 291.600 90.360,291.420 90.000,291.200 90.000 C 290.980 90.000,290.800 89.640,290.800 89.200 C 290.800 88.760,290.643 88.400,290.450 88.400 C 290.258 88.400,289.986 86.375,289.846 83.900 C 289.427 76.488,288.964 72.655,288.465 72.488 C 288.197 72.399,288.000 71.512,288.000 70.390 C 288.000 69.322,287.820 68.336,287.600 68.200 C 287.380 68.064,287.200 67.243,287.200 66.376 C 287.200 65.509,287.020 64.800,286.800 64.800 C 286.563 64.800,286.400 63.341,286.400 61.224 C 286.400 59.257,286.220 57.536,286.000 57.400 C 285.773 57.260,285.594 55.215,285.587 52.676 C 285.579 49.589,285.410 47.983,285.043 47.500 C 284.283 46.498,281.602 46.566,280.475 47.616 M230.800 66.000 C 230.800 66.231,229.533 66.400,227.800 66.400 C 226.067 66.400,224.800 66.569,224.800 66.800 C 224.800 67.020,224.181 67.200,223.424 67.200 C 222.667 67.200,221.936 67.380,221.800 67.600 C 221.664 67.820,221.203 68.000,220.776 68.000 C 220.349 68.000,220.000 68.180,220.000 68.400 C 220.000 68.620,219.471 68.800,218.824 68.800 C 218.177 68.800,217.536 68.980,217.400 69.200 C 217.264 69.420,216.623 69.600,215.976 69.600 C 215.329 69.600,214.800 69.780,214.800 70.000 C 214.800 70.220,214.440 70.400,214.000 70.400 C 213.560 70.400,213.200 70.580,213.200 70.800 C 213.200 71.020,212.840 71.200,212.400 71.200 C 211.960 71.200,211.600 71.360,211.600 71.557 C 211.600 71.753,211.150 72.026,210.600 72.164 C 210.050 72.302,209.600 72.592,209.600 72.808 C 209.600 73.023,209.240 73.200,208.800 73.200 C 208.360 73.200,208.000 73.380,208.000 73.600 C 208.000 73.820,207.680 74.000,207.288 74.000 C 206.897 74.000,206.317 74.360,206.000 74.800 C 205.683 75.240,205.195 75.600,204.916 75.600 C 203.745 75.600,198.800 80.615,198.800 81.802 C 198.800 82.137,198.620 82.768,198.400 83.205 C 198.180 83.642,197.820 84.358,197.600 84.795 C 197.380 85.232,197.200 86.402,197.200 87.395 C 197.200 88.388,197.020 89.200,196.800 89.200 C 196.554 89.200,196.401 91.165,196.403 94.300 L 196.405 99.400 197.657 100.113 C 199.337 101.069,200.400 100.226,200.400 97.938 C 200.400 97.092,200.580 96.400,200.800 96.400 C 201.020 96.400,201.200 95.860,201.200 95.200 C 201.200 94.540,201.380 94.000,201.600 94.000 C 201.820 94.000,202.000 93.542,202.000 92.982 C 202.000 91.983,203.101 90.625,204.608 89.766 C 205.952 89.000,208.977 90.600,209.689 92.454 C 209.826 92.812,210.493 93.351,211.169 93.651 C 211.846 93.950,212.400 94.331,212.400 94.498 C 212.400 94.664,212.760 94.800,213.200 94.800 C 213.640 94.800,214.000 94.980,214.000 95.200 C 214.000 95.420,214.360 95.600,214.800 95.600 C 215.240 95.600,215.600 95.780,215.600 96.000 C 215.600 96.220,215.825 96.403,216.100 96.406 C 216.375 96.410,217.201 96.943,217.937 97.591 C 218.672 98.239,219.606 98.875,220.012 99.004 C 220.418 99.133,220.985 99.769,221.273 100.419 C 221.560 101.069,221.931 101.600,222.098 101.600 C 222.264 101.600,222.400 101.945,222.400 102.367 C 222.400 102.788,222.612 103.204,222.871 103.290 C 223.130 103.377,223.214 103.655,223.057 103.908 C 222.769 104.374,219.157 102.677,218.867 101.939 C 218.793 101.753,218.388 101.600,217.967 101.600 C 217.545 101.600,217.200 101.420,217.200 101.200 C 217.200 100.980,216.851 100.800,216.424 100.800 C 215.997 100.800,215.536 100.620,215.400 100.400 C 215.264 100.180,214.724 100.000,214.200 100.000 C 213.676 100.000,213.136 99.820,213.000 99.600 C 212.864 99.380,212.466 99.200,212.117 99.200 C 211.767 99.200,210.617 98.300,209.563 97.200 C 207.549 95.099,207.043 94.871,206.271 95.715 C 203.477 98.771,204.350 110.000,207.382 110.000 C 207.722 110.000,208.000 110.180,208.000 110.400 C 208.000 110.639,209.533 110.800,211.800 110.800 L 215.600 110.800 215.600 112.200 C 215.600 112.970,215.420 113.600,215.200 113.600 C 214.980 113.600,214.800 113.898,214.800 114.262 C 214.800 114.878,214.749 114.878,214.069 114.262 C 213.666 113.898,213.036 113.600,212.669 113.600 C 212.301 113.600,212.000 113.420,212.000 113.200 C 212.000 112.980,211.550 112.800,211.000 112.800 C 210.450 112.800,210.000 112.980,210.000 113.200 C 210.000 113.420,209.627 113.600,209.171 113.600 C 208.189 113.600,207.200 114.489,207.200 115.371 C 207.200 115.717,207.020 116.000,206.800 116.000 C 206.580 116.000,206.400 116.529,206.400 117.176 C 206.400 117.823,206.220 118.464,206.000 118.600 C 204.753 119.370,206.482 123.596,208.047 123.602 C 210.470 123.612,211.600 124.421,211.600 126.147 C 211.600 127.924,212.863 129.600,214.203 129.600 C 214.860 129.600,215.028 131.012,214.417 131.390 C 213.908 131.704,213.905 141.200,214.413 141.200 C 214.626 141.200,214.800 141.530,214.800 141.932 C 214.800 142.335,215.236 142.898,215.769 143.184 C 216.924 143.802,218.800 143.436,218.800 142.592 C 218.800 142.267,219.126 142.000,219.525 142.000 C 219.923 142.000,220.636 141.640,221.108 141.200 C 221.580 140.760,222.244 140.400,222.583 140.400 C 222.922 140.400,223.200 140.220,223.200 140.000 C 223.200 139.780,223.520 139.600,223.912 139.600 C 224.303 139.600,224.883 139.240,225.200 138.800 C 225.517 138.360,226.097 138.000,226.488 138.000 C 226.880 138.000,227.200 137.820,227.200 137.600 C 227.200 137.380,227.464 137.200,227.786 137.200 C 228.488 137.200,232.144 135.222,232.333 134.739 C 232.407 134.553,232.812 134.400,233.233 134.400 C 233.655 134.400,234.000 134.220,234.000 134.000 C 234.000 133.780,234.540 133.600,235.200 133.600 C 235.860 133.600,236.400 133.420,236.400 133.200 C 236.400 132.980,236.715 132.796,237.100 132.791 C 237.485 132.786,238.250 132.430,238.800 132.000 C 239.350 131.570,239.959 131.214,240.153 131.209 C 241.399 131.178,242.678 128.516,242.034 127.295 C 241.832 126.913,241.365 125.907,240.996 125.060 C 240.194 123.220,236.145 119.123,234.425 118.410 C 233.673 118.099,233.200 117.613,233.200 117.151 C 233.200 116.738,233.020 116.400,232.800 116.400 C 232.580 116.400,232.400 115.858,232.400 115.195 C 232.400 114.021,231.752 112.456,231.055 111.949 C 230.176 111.307,230.784 103.579,231.795 102.569 C 233.879 100.485,236.000 102.207,236.000 105.982 C 236.000 107.327,235.823 108.400,235.600 108.400 C 235.380 108.400,235.200 108.850,235.200 109.400 C 235.200 109.950,235.020 110.400,234.800 110.400 C 234.069 110.400,234.373 113.743,235.200 114.800 C 235.630 115.350,235.986 116.025,235.991 116.300 C 235.996 116.575,236.360 116.800,236.800 116.800 C 237.240 116.800,237.600 116.980,237.600 117.200 C 237.600 117.420,237.960 117.600,238.400 117.600 C 238.840 117.600,239.200 117.780,239.200 118.000 C 239.200 118.220,239.498 118.400,239.862 118.400 C 240.226 118.400,241.829 119.743,243.424 121.385 C 246.710 124.769,248.619 126.000,250.579 126.000 C 251.324 126.000,252.015 126.225,252.114 126.500 C 252.259 126.900,252.465 126.900,253.142 126.500 C 253.608 126.225,254.802 126.000,255.795 126.000 C 256.788 126.000,257.600 125.820,257.600 125.600 C 257.600 125.380,258.129 125.200,258.776 125.200 C 259.423 125.200,260.064 125.020,260.200 124.800 C 260.336 124.580,261.157 124.400,262.024 124.400 C 262.891 124.400,263.600 124.220,263.600 124.000 C 263.600 123.780,264.129 123.600,264.776 123.600 C 265.423 123.600,266.064 123.420,266.200 123.200 C 266.336 122.980,266.862 122.800,267.369 122.800 C 268.476 122.800,270.400 120.988,270.400 119.945 C 270.400 119.535,270.580 119.200,270.800 119.200 C 271.037 119.200,271.200 117.733,271.200 115.600 C 271.200 113.467,271.037 112.000,270.800 112.000 C 270.580 112.000,270.400 111.471,270.400 110.824 C 270.400 110.177,270.220 109.536,270.000 109.400 C 269.780 109.264,269.600 108.803,269.600 108.376 C 269.600 107.949,269.420 107.600,269.200 107.600 C 268.980 107.600,268.800 107.240,268.800 106.800 C 268.800 106.360,268.620 106.000,268.400 106.000 C 268.180 106.000,268.000 105.722,268.000 105.382 C 268.000 105.042,267.595 104.330,267.100 103.801 C 265.775 102.384,265.200 101.661,265.200 101.413 C 265.200 101.292,264.660 100.628,264.000 99.937 C 263.340 99.246,262.800 98.453,262.800 98.174 C 262.800 97.895,262.596 97.599,262.347 97.516 C 262.041 97.414,261.908 95.854,261.938 92.701 C 261.964 90.041,261.814 87.933,261.591 87.795 C 261.376 87.662,261.200 86.697,261.200 85.651 C 261.200 83.483,259.667 79.898,258.401 79.108 C 257.960 78.833,257.600 78.372,257.600 78.084 C 257.600 77.555,252.197 72.001,251.680 71.999 C 251.526 71.999,250.770 71.459,250.000 70.800 C 249.230 70.141,248.375 69.601,248.100 69.601 C 247.825 69.600,247.600 69.420,247.600 69.200 C 247.600 68.980,247.240 68.800,246.800 68.800 C 246.360 68.800,246.000 68.620,246.000 68.400 C 246.000 68.180,245.651 68.000,245.224 68.000 C 244.797 68.000,244.336 67.820,244.200 67.600 C 244.064 67.380,243.423 67.200,242.776 67.200 C 242.129 67.200,241.600 67.020,241.600 66.800 C 241.600 66.574,240.467 66.400,239.000 66.400 C 237.533 66.400,236.400 66.226,236.400 66.000 C 236.400 65.771,235.200 65.600,233.600 65.600 C 232.000 65.600,230.800 65.771,230.800 66.000 M164.600 76.499 C 162.878 77.754,160.876 79.980,160.300 81.280 C 160.028 81.896,159.669 82.400,159.502 82.400 C 159.336 82.400,159.200 82.760,159.200 83.200 C 159.200 83.640,159.020 84.000,158.800 84.000 C 158.580 84.000,158.400 84.709,158.400 85.576 C 158.400 86.443,158.220 87.264,158.000 87.400 C 156.701 88.203,158.503 92.400,160.147 92.400 C 160.506 92.400,160.800 92.580,160.800 92.800 C 160.800 93.020,161.509 93.200,162.376 93.200 C 163.243 93.200,164.064 93.380,164.200 93.600 C 164.336 93.820,164.715 94.000,165.042 94.000 C 165.823 94.000,167.600 95.793,167.600 96.582 C 167.600 96.922,167.780 97.200,168.000 97.200 C 168.220 97.200,168.400 97.549,168.400 97.976 C 168.400 98.403,168.580 98.864,168.800 99.000 C 169.020 99.136,169.200 99.597,169.200 100.024 C 169.200 100.451,169.380 100.800,169.600 100.800 C 169.820 100.800,170.000 101.082,170.000 101.427 C 170.000 102.354,173.575 105.615,174.876 105.875 C 175.494 105.999,176.000 106.258,176.000 106.450 C 176.000 106.642,176.709 106.800,177.576 106.800 C 178.443 106.800,179.264 106.980,179.400 107.200 C 179.536 107.420,179.997 107.600,180.424 107.600 C 181.089 107.600,181.200 107.887,181.200 109.600 C 181.200 110.700,181.380 111.600,181.600 111.600 C 181.820 111.600,182.000 111.870,182.000 112.200 C 182.000 112.530,182.180 112.800,182.400 112.800 C 182.620 112.800,182.800 113.239,182.800 113.776 C 182.800 114.313,182.980 114.864,183.200 115.000 C 183.420 115.136,183.600 115.957,183.600 116.824 C 183.600 117.691,183.780 118.400,184.000 118.400 C 184.225 118.400,184.400 119.525,184.400 120.976 C 184.400 122.393,184.580 123.664,184.800 123.800 C 185.020 123.936,185.200 125.106,185.200 126.400 C 185.200 127.694,185.380 128.864,185.600 129.000 C 185.820 129.136,186.000 129.779,186.000 130.429 C 186.000 131.079,186.160 131.923,186.356 132.305 C 186.551 132.687,187.046 133.690,187.456 134.534 C 188.469 136.623,191.338 139.600,192.337 139.600 C 192.786 139.600,193.264 139.780,193.400 140.000 C 193.536 140.220,194.267 140.400,195.024 140.400 C 195.781 140.400,196.400 140.580,196.400 140.800 C 196.400 141.020,197.109 141.200,197.976 141.200 C 198.843 141.200,199.664 141.380,199.800 141.600 C 200.198 142.244,205.958 142.099,206.629 141.429 C 207.278 140.779,207.406 137.775,206.800 137.400 C 206.580 137.264,206.400 136.885,206.400 136.558 C 206.400 136.231,205.995 135.530,205.500 135.001 C 205.005 134.472,204.399 133.805,204.154 133.519 C 203.908 133.234,203.323 132.735,202.854 132.412 C 202.384 132.088,201.999 131.638,201.998 131.412 C 201.997 131.185,201.435 130.401,200.749 129.669 L 199.502 128.339 199.567 119.769 C 199.611 114.056,199.494 111.200,199.216 111.200 C 198.987 111.200,198.800 110.744,198.800 110.186 C 198.800 108.462,196.324 105.531,191.228 101.224 C 190.333 100.467,189.600 99.606,189.600 99.311 C 189.600 99.016,189.330 98.671,189.000 98.545 C 188.670 98.418,188.400 97.974,188.400 97.557 C 188.400 97.141,188.220 96.800,188.000 96.800 C 187.780 96.800,187.600 96.260,187.600 95.600 C 187.600 94.940,187.420 94.400,187.200 94.400 C 186.980 94.400,186.800 93.590,186.800 92.600 C 186.800 91.610,186.620 90.800,186.400 90.800 C 186.180 90.800,186.000 90.440,186.000 90.000 C 186.000 89.560,185.820 89.200,185.600 89.200 C 185.380 89.200,185.200 88.750,185.200 88.200 C 185.200 87.650,185.020 87.200,184.800 87.200 C 184.580 87.200,184.400 86.840,184.400 86.400 C 184.400 85.960,184.220 85.600,184.000 85.600 C 183.780 85.600,183.600 85.375,183.600 85.100 C 183.599 84.553,181.873 82.400,181.435 82.400 C 181.082 82.400,179.200 80.518,179.200 80.165 C 179.200 79.727,177.047 78.001,176.500 78.000 C 176.225 78.000,176.000 77.820,176.000 77.600 C 176.000 77.380,175.651 77.200,175.224 77.200 C 174.797 77.200,174.336 77.020,174.200 76.800 C 174.064 76.580,173.603 76.400,173.176 76.400 C 172.749 76.400,172.400 76.220,172.400 76.000 C 172.400 75.138,165.898 75.554,164.600 76.499 M147.200 76.800 C 147.200 77.020,146.922 77.200,146.582 77.200 C 146.242 77.200,145.547 77.605,145.037 78.100 C 144.527 78.595,143.726 79.265,143.255 79.588 C 142.785 79.912,142.400 80.423,142.400 80.724 C 142.400 81.025,142.057 81.571,141.638 81.936 C 140.544 82.890,138.800 86.257,138.800 87.414 C 138.800 87.956,138.620 88.400,138.400 88.400 C 138.180 88.400,138.000 88.940,138.000 89.600 C 138.000 90.260,137.820 90.800,137.600 90.800 C 137.380 90.800,137.200 91.340,137.200 92.000 C 137.200 92.660,137.020 93.200,136.800 93.200 C 136.580 93.200,136.400 93.830,136.400 94.600 C 136.400 95.370,136.220 96.000,136.000 96.000 C 135.780 96.000,135.600 96.360,135.600 96.800 C 135.600 97.240,135.420 97.600,135.200 97.600 C 134.980 97.600,134.800 98.121,134.800 98.757 C 134.800 99.417,134.542 100.013,134.200 100.145 C 133.870 100.271,133.600 100.795,133.600 101.307 C 133.600 101.820,133.434 102.411,133.231 102.620 C 132.887 102.974,132.749 104.194,132.164 112.000 C 132.041 113.650,131.773 115.171,131.570 115.380 C 131.366 115.589,131.200 116.444,131.200 117.280 C 131.200 118.116,131.020 118.800,130.800 118.800 C 130.580 118.800,130.400 119.419,130.400 120.176 C 130.400 120.933,130.580 121.664,130.800 121.800 C 131.020 121.936,131.200 122.757,131.200 123.624 C 131.200 124.491,131.380 125.200,131.600 125.200 C 131.841 125.200,132.000 126.859,132.000 129.376 C 132.000 131.729,131.825 133.661,131.600 133.800 C 130.815 134.285,131.095 144.391,131.900 144.649 C 132.285 144.772,133.016 145.073,133.525 145.317 C 134.215 145.649,134.644 145.640,135.219 145.281 C 135.643 145.016,137.241 144.800,138.771 144.800 C 140.301 144.800,141.664 144.620,141.800 144.400 C 141.936 144.180,142.357 144.000,142.735 144.000 C 144.488 144.000,145.973 135.972,144.400 135.000 C 144.180 134.864,144.000 134.234,144.000 133.600 C 144.000 132.966,143.844 132.351,143.653 132.232 C 143.461 132.114,143.189 131.294,143.048 130.409 C 142.906 129.524,142.613 128.800,142.395 128.800 C 142.178 128.800,142.000 128.440,142.000 128.000 C 142.000 127.560,141.820 127.200,141.600 127.200 C 141.380 127.200,141.200 126.851,141.200 126.424 C 141.200 125.997,141.020 125.536,140.800 125.400 C 140.580 125.264,140.400 124.724,140.400 124.200 C 140.400 123.676,140.220 123.136,140.000 123.000 C 139.780 122.864,139.600 122.234,139.600 121.600 C 139.600 120.966,139.420 120.336,139.200 120.200 C 138.980 120.064,138.800 119.434,138.800 118.800 C 138.800 118.166,138.980 117.536,139.200 117.400 C 139.420 117.264,139.600 116.364,139.600 115.400 C 139.600 114.436,139.420 113.536,139.200 113.400 C 138.980 113.264,138.800 112.004,138.800 110.600 C 138.800 109.196,138.980 107.936,139.200 107.800 C 139.420 107.664,139.600 106.573,139.600 105.376 C 139.600 104.179,139.780 103.200,140.000 103.200 C 140.220 103.200,140.400 102.840,140.400 102.400 C 140.400 101.960,140.580 101.600,140.800 101.600 C 141.020 101.600,141.200 101.328,141.200 100.995 C 141.200 100.153,141.958 98.911,143.600 97.064 C 146.063 94.292,147.365 93.200,148.205 93.200 C 148.532 93.200,148.800 93.020,148.800 92.800 C 148.800 92.580,149.049 92.400,149.354 92.400 C 150.991 92.400,153.200 90.191,153.200 88.554 C 153.200 88.249,153.380 88.000,153.600 88.000 C 153.820 88.000,154.000 87.561,154.000 87.024 C 154.000 86.487,154.180 85.936,154.400 85.800 C 154.620 85.664,154.800 85.203,154.800 84.776 C 154.800 84.349,154.980 84.000,155.200 84.000 C 155.420 84.000,155.600 83.651,155.600 83.224 C 155.600 82.797,155.780 82.336,156.000 82.200 C 156.821 81.693,156.481 77.546,155.600 77.316 C 155.160 77.201,154.800 76.948,154.800 76.753 C 154.800 76.559,153.090 76.400,151.000 76.400 C 148.733 76.400,147.200 76.561,147.200 76.800 M149.200 98.000 C 149.200 98.220,148.988 98.400,148.728 98.400 C 147.993 98.400,144.800 102.022,144.800 102.856 C 144.800 103.265,144.620 103.600,144.400 103.600 C 144.178 103.600,144.000 104.659,144.000 105.976 C 144.000 107.283,143.820 108.464,143.600 108.600 C 143.380 108.736,143.200 109.704,143.200 110.751 C 143.200 113.611,144.288 114.400,148.232 114.400 C 150.320 114.400,151.434 114.577,151.829 114.971 C 152.498 115.641,152.651 121.200,152.000 121.200 C 151.780 121.200,151.597 120.615,151.594 119.900 C 151.578 116.629,147.583 114.812,145.100 116.947 C 143.944 117.941,143.429 122.400,144.400 123.000 C 144.620 123.136,144.800 123.563,144.800 123.948 C 144.800 124.334,145.160 125.036,145.600 125.508 C 146.040 125.980,146.400 126.824,146.400 127.383 C 146.400 127.942,146.580 128.400,146.800 128.400 C 147.020 128.400,147.200 128.749,147.200 129.176 C 147.200 129.603,147.380 130.064,147.600 130.200 C 147.820 130.336,148.000 131.157,148.000 132.024 C 148.000 132.891,148.180 133.600,148.400 133.600 C 148.625 133.600,148.800 134.718,148.800 136.154 C 148.800 137.642,149.049 139.187,149.398 139.854 C 149.726 140.484,149.996 141.735,149.998 142.634 C 150.001 144.951,154.888 150.147,157.645 150.765 C 159.645 151.213,164.500 150.700,164.728 150.017 C 164.804 149.788,165.135 149.600,165.462 149.600 C 165.789 149.600,166.294 149.375,166.584 149.100 C 167.922 147.830,168.857 147.200,169.405 147.200 C 169.732 147.200,170.000 147.020,170.000 146.800 C 170.000 146.580,170.284 146.400,170.631 146.400 C 171.303 146.400,174.400 143.399,174.400 142.749 C 174.400 142.537,174.836 141.928,175.369 141.395 C 175.902 140.862,176.454 140.060,176.596 139.613 C 176.738 139.166,177.022 138.800,177.227 138.800 C 177.432 138.800,177.600 138.564,177.600 138.275 C 177.600 137.987,177.960 137.364,178.400 136.892 C 178.840 136.420,179.200 135.846,179.200 135.617 C 179.200 135.388,179.380 135.200,179.600 135.200 C 179.820 135.200,180.000 134.855,180.000 134.433 C 180.000 134.012,180.210 133.597,180.467 133.511 C 180.777 133.408,180.933 132.121,180.933 129.664 C 180.933 127.386,180.755 125.795,180.467 125.507 C 180.210 125.250,180.000 124.356,180.000 123.520 C 180.000 122.684,179.820 122.000,179.600 122.000 C 179.380 122.000,179.200 121.291,179.200 120.424 C 179.200 119.557,179.020 118.736,178.800 118.600 C 178.580 118.464,178.400 117.374,178.400 116.177 C 178.400 113.781,176.827 111.636,174.200 110.449 C 173.540 110.151,172.687 109.748,172.305 109.553 C 171.923 109.359,171.374 109.200,171.084 109.200 C 170.118 109.200,167.808 106.630,166.597 104.206 C 165.939 102.889,165.085 101.460,164.700 101.030 C 164.315 100.601,164.000 100.028,164.000 99.758 C 164.000 99.488,163.460 99.028,162.800 98.736 C 162.140 98.444,161.600 98.069,161.600 97.902 C 161.600 97.736,158.810 97.600,155.400 97.600 C 151.533 97.600,149.200 97.751,149.200 98.000 M168.327 114.900 L 168.453 116.000 165.306 116.000 C 162.110 116.000,160.009 116.594,160.003 117.500 C 160.001 117.775,159.820 118.000,159.600 118.000 C 159.036 118.000,159.101 115.459,159.680 114.880 C 159.944 114.616,160.563 114.400,161.056 114.400 C 161.549 114.400,162.069 114.212,162.210 113.983 C 162.864 112.925,168.191 113.723,168.327 114.900 M160.145 119.800 C 160.285 120.165,160.145 120.400,159.787 120.400 C 159.464 120.400,159.200 120.130,159.200 119.800 C 159.200 119.470,159.361 119.200,159.557 119.200 C 159.754 119.200,160.018 119.470,160.145 119.800 M290.600 125.600 C 290.160 125.789,289.108 125.956,288.262 125.972 C 286.516 126.004,284.622 126.931,283.300 128.400 C 282.388 129.415,282.069 131.200,282.800 131.200 C 283.020 131.200,283.200 131.560,283.200 132.000 C 283.200 132.440,283.380 132.800,283.600 132.800 C 283.820 132.800,284.000 132.980,284.000 133.200 C 284.000 133.420,283.548 133.600,282.995 133.600 C 282.442 133.600,281.632 133.420,281.195 133.200 C 280.758 132.980,280.042 132.620,279.605 132.400 C 279.168 132.180,278.448 132.000,278.005 132.000 C 277.562 132.000,277.200 131.820,277.200 131.600 C 277.200 131.380,276.840 131.200,276.400 131.200 C 275.960 131.200,275.600 131.020,275.600 130.800 C 275.600 130.580,275.330 130.400,275.000 130.400 C 274.670 130.400,274.400 130.220,274.400 130.000 C 274.400 129.780,274.040 129.600,273.600 129.600 C 273.160 129.600,272.800 129.420,272.800 129.200 C 272.800 128.980,272.440 128.800,272.000 128.800 C 271.560 128.800,271.200 128.620,271.200 128.400 C 271.200 128.175,270.075 128.000,268.624 128.000 C 267.207 128.000,265.936 128.180,265.800 128.400 C 265.664 128.620,265.034 128.800,264.400 128.800 C 263.766 128.800,263.136 128.980,263.000 129.200 C 262.864 129.420,262.223 129.600,261.576 129.600 C 260.929 129.600,260.400 129.780,260.400 130.000 C 260.400 130.220,259.781 130.400,259.024 130.400 C 258.267 130.400,257.536 130.580,257.400 130.800 C 257.264 131.020,256.711 131.200,256.171 131.200 C 255.631 131.200,254.832 131.380,254.395 131.600 C 253.958 131.820,253.242 132.180,252.805 132.400 C 252.368 132.620,251.659 132.800,251.229 132.800 C 250.799 132.800,250.336 132.980,250.200 133.200 C 250.064 133.420,249.616 133.600,249.205 133.600 C 248.794 133.600,248.187 133.870,247.857 134.200 C 247.527 134.530,246.794 134.800,246.229 134.800 C 245.663 134.800,245.200 134.980,245.200 135.200 C 245.200 135.420,244.840 135.600,244.400 135.600 C 243.960 135.600,243.600 135.780,243.600 136.000 C 243.600 136.220,243.071 136.400,242.424 136.400 C 241.777 136.400,241.136 136.580,241.000 136.800 C 240.864 137.020,240.403 137.200,239.976 137.200 C 239.549 137.200,239.200 137.380,239.200 137.600 C 239.200 137.820,238.921 138.000,238.581 138.000 C 238.240 138.000,237.216 138.360,236.306 138.800 C 235.395 139.240,234.414 139.600,234.125 139.600 C 233.836 139.600,233.600 139.780,233.600 140.000 C 233.600 140.220,233.345 140.400,233.032 140.400 C 232.319 140.400,230.006 141.698,230.003 142.100 C 230.001 142.265,229.640 142.400,229.200 142.400 C 228.760 142.400,228.400 142.580,228.400 142.800 C 228.400 143.020,228.040 143.200,227.600 143.200 C 227.160 143.200,226.800 143.380,226.800 143.600 C 226.800 143.820,226.474 144.000,226.075 144.000 C 225.677 144.000,224.993 144.315,224.555 144.700 C 224.117 145.085,223.363 145.625,222.880 145.900 C 222.396 146.175,221.609 146.625,221.132 146.900 C 220.654 147.175,219.627 147.985,218.849 148.700 C 218.070 149.415,217.286 150.000,217.106 150.000 C 216.560 150.000,208.800 157.944,208.800 158.503 C 208.800 158.789,208.440 159.283,208.000 159.600 C 207.560 159.917,207.200 160.457,207.200 160.800 C 207.200 161.143,206.840 161.683,206.400 162.000 C 205.960 162.317,205.596 162.852,205.591 163.188 C 205.586 163.525,205.230 164.250,204.800 164.800 C 204.370 165.350,204.014 166.010,204.009 166.267 C 204.004 166.523,203.840 166.793,203.644 166.867 C 203.171 167.044,200.400 172.311,200.400 173.033 C 200.400 173.345,200.220 173.600,200.000 173.600 C 199.780 173.600,199.600 173.960,199.600 174.400 C 199.600 174.840,199.420 175.200,199.200 175.200 C 198.980 175.200,198.800 175.560,198.800 176.000 C 198.800 176.440,198.620 176.800,198.400 176.800 C 198.180 176.800,198.000 177.160,198.000 177.600 C 198.000 178.040,197.820 178.400,197.600 178.400 C 197.380 178.400,197.200 178.850,197.200 179.400 C 197.200 179.950,197.020 180.400,196.800 180.400 C 196.580 180.400,196.400 180.661,196.400 180.979 C 196.400 181.298,195.983 182.009,195.474 182.558 C 194.964 183.108,194.126 184.377,193.611 185.379 C 193.096 186.380,192.523 187.200,192.337 187.200 C 192.152 187.200,192.000 187.476,192.000 187.813 C 192.000 188.496,189.459 191.200,188.818 191.200 C 188.435 191.200,187.397 191.949,186.184 193.100 C 185.894 193.375,185.483 193.600,185.270 193.600 C 185.057 193.600,184.364 194.185,183.730 194.900 C 183.096 195.615,182.088 196.455,181.489 196.768 C 180.890 197.080,180.400 197.485,180.400 197.668 C 180.400 197.850,180.202 198.000,179.960 198.000 C 179.719 198.000,179.017 198.540,178.400 199.200 C 177.783 199.860,177.143 200.400,176.977 200.400 C 176.504 200.400,173.600 203.485,173.600 203.987 C 173.600 204.234,173.150 204.886,172.600 205.436 C 171.169 206.867,171.169 210.381,172.600 212.486 C 173.150 213.295,173.600 214.071,173.600 214.210 C 173.600 214.349,174.320 215.154,175.200 216.000 C 176.080 216.846,176.800 217.756,176.800 218.024 C 176.800 218.577,188.332 230.000,188.890 230.000 C 189.089 230.000,190.129 230.900,191.200 232.000 C 192.271 233.100,193.312 234.000,193.513 234.000 C 193.713 234.000,194.526 234.630,195.319 235.400 C 197.794 237.804,202.800 236.795,202.800 233.892 C 202.800 233.608,203.153 233.122,203.585 232.811 C 205.036 231.765,204.961 228.422,203.486 228.389 C 203.219 228.383,202.296 227.573,201.435 226.589 C 200.574 225.605,199.726 224.800,199.551 224.800 C 199.145 224.800,196.006 221.737,195.982 221.316 C 195.971 221.142,195.240 220.370,194.356 219.600 C 193.471 218.830,192.265 217.683,191.674 217.052 C 191.083 216.420,189.738 215.025,188.684 213.952 C 187.630 212.878,186.872 212.000,186.998 212.000 C 187.310 212.000,189.275 213.271,189.929 213.895 C 190.219 214.173,190.618 214.400,190.815 214.400 C 191.012 214.400,191.803 215.030,192.573 215.800 C 193.343 216.570,194.159 217.200,194.387 217.200 C 194.614 217.200,194.800 217.380,194.800 217.600 C 194.800 217.820,195.067 218.000,195.394 218.000 C 195.721 218.000,196.784 218.765,197.757 219.700 C 201.058 222.874,202.376 224.000,202.789 224.000 C 203.015 224.000,203.200 224.180,203.200 224.400 C 203.200 224.620,203.560 224.800,204.000 224.800 C 204.440 224.800,204.800 224.980,204.800 225.200 C 204.800 226.032,210.170 225.674,210.800 224.800 C 211.117 224.360,211.544 224.000,211.749 224.000 C 212.262 224.000,216.400 219.753,216.400 219.226 C 216.400 218.992,216.683 218.800,217.029 218.800 C 217.727 218.800,218.800 217.872,218.800 217.268 C 218.800 217.054,219.570 216.096,220.512 215.140 C 221.454 214.183,222.474 212.905,222.780 212.300 C 223.085 211.695,223.485 211.200,223.668 211.200 C 223.850 211.200,224.000 210.880,224.000 210.488 C 224.000 210.097,224.360 209.517,224.800 209.200 C 225.240 208.883,225.600 208.303,225.600 207.912 C 225.600 207.520,225.780 207.200,226.000 207.200 C 226.220 207.200,226.400 206.958,226.400 206.661 C 226.400 206.160,227.157 204.317,228.026 202.705 C 228.232 202.323,228.400 201.594,228.400 201.085 C 228.400 200.576,228.593 199.967,228.830 199.730 C 229.985 198.575,228.236 186.903,226.674 185.341 C 226.523 185.190,226.400 184.657,226.400 184.157 C 226.400 183.657,226.220 183.136,226.000 183.000 C 225.780 182.864,225.600 182.223,225.600 181.576 C 225.600 180.929,225.420 180.400,225.200 180.400 C 224.980 180.400,224.800 179.961,224.800 179.424 C 224.800 178.887,224.620 178.336,224.400 178.200 C 224.180 178.064,224.000 177.658,224.000 177.299 C 224.000 176.891,224.368 177.163,224.977 178.022 C 225.514 178.780,226.324 179.799,226.777 180.286 C 227.229 180.773,227.600 181.352,227.600 181.574 C 227.600 181.795,227.960 182.617,228.400 183.400 C 228.840 184.183,229.200 185.089,229.200 185.412 C 229.200 185.735,229.380 186.000,229.600 186.000 C 229.820 186.000,230.000 186.540,230.000 187.200 C 230.000 187.860,230.180 188.400,230.400 188.400 C 230.620 188.400,230.800 189.019,230.800 189.776 C 230.800 190.533,230.980 191.264,231.200 191.400 C 231.420 191.536,231.600 192.087,231.600 192.624 C 231.600 193.161,231.780 193.600,232.000 193.600 C 232.220 193.600,232.400 193.924,232.400 194.320 C 232.400 196.212,234.902 196.589,236.545 194.945 C 237.125 194.365,237.600 193.566,237.600 193.169 C 237.600 192.772,237.780 192.336,238.000 192.200 C 238.220 192.064,238.400 191.333,238.400 190.576 C 238.400 189.819,238.580 189.200,238.800 189.200 C 239.020 189.200,239.200 188.840,239.200 188.400 C 239.200 187.960,239.380 187.600,239.600 187.600 C 239.820 187.600,240.000 188.050,240.000 188.600 C 240.000 189.150,239.820 189.600,239.600 189.600 C 239.380 189.600,239.200 190.140,239.200 190.800 C 239.200 191.460,239.020 192.000,238.800 192.000 C 238.580 192.000,238.400 192.349,238.400 192.776 C 238.400 193.203,238.220 193.664,238.000 193.800 C 237.780 193.936,237.600 194.577,237.600 195.224 C 237.600 195.871,237.420 196.400,237.200 196.400 C 236.980 196.400,236.800 196.672,236.800 197.005 C 236.800 197.338,236.620 197.968,236.400 198.405 C 234.837 201.510,233.149 204.542,232.839 204.800 C 232.707 204.910,232.344 205.495,232.032 206.100 C 231.720 206.705,231.315 207.200,231.132 207.200 C 230.950 207.200,230.800 207.478,230.800 207.817 C 230.800 208.156,230.440 208.820,230.000 209.292 C 229.560 209.764,229.200 210.437,229.200 210.787 C 229.200 211.137,228.840 211.683,228.400 212.000 C 227.960 212.317,227.600 212.854,227.600 213.193 C 227.600 213.533,227.150 214.148,226.600 214.561 C 226.050 214.974,225.600 215.474,225.600 215.673 C 225.600 215.871,225.240 216.420,224.800 216.892 C 224.360 217.364,224.000 217.985,224.000 218.272 C 224.000 218.558,219.860 222.932,214.800 227.991 C 209.740 233.051,205.600 237.423,205.600 237.707 C 205.600 237.991,205.240 238.483,204.800 238.800 C 204.360 239.117,204.000 239.607,204.000 239.888 C 204.000 240.170,203.847 240.400,203.661 240.400 C 203.048 240.400,201.877 243.568,201.838 245.331 C 201.802 246.961,202.573 248.400,203.483 248.400 C 203.670 248.400,204.083 248.760,204.400 249.200 C 204.717 249.640,205.220 250.000,205.517 250.000 C 205.814 250.000,206.327 250.270,206.657 250.600 C 206.987 250.930,207.774 251.200,208.405 251.200 C 209.036 251.200,209.664 251.380,209.800 251.600 C 209.936 251.820,210.566 252.000,211.200 252.000 C 211.834 252.000,212.464 252.180,212.600 252.400 C 212.736 252.620,214.277 252.800,216.024 252.800 C 217.875 252.800,219.200 252.967,219.200 253.200 C 219.200 253.420,219.920 253.600,220.800 253.600 C 221.680 253.600,222.400 253.780,222.400 254.000 C 222.400 254.220,223.390 254.400,224.600 254.400 C 225.810 254.400,226.800 254.580,226.800 254.800 C 226.800 255.020,227.340 255.200,228.000 255.200 C 228.660 255.200,229.200 255.380,229.200 255.600 C 229.200 255.820,229.920 256.000,230.800 256.000 C 231.680 256.000,232.400 256.180,232.400 256.400 C 232.400 256.620,232.850 256.800,233.400 256.800 C 233.950 256.800,234.400 256.980,234.400 257.200 C 234.400 257.420,235.043 257.600,235.829 257.600 C 236.614 257.600,237.527 257.870,237.857 258.200 C 238.187 258.530,238.884 258.800,239.405 258.800 C 239.926 258.800,240.464 258.980,240.600 259.200 C 240.736 259.420,241.456 259.600,242.200 259.600 C 242.944 259.600,243.664 259.780,243.800 260.000 C 243.936 260.220,244.746 260.400,245.600 260.400 C 246.454 260.400,247.264 260.580,247.400 260.800 C 247.540 261.027,249.530 261.200,252.000 261.200 C 254.470 261.200,256.460 261.027,256.600 260.800 C 256.736 260.580,257.276 260.400,257.800 260.400 C 258.324 260.400,258.851 260.241,258.971 260.046 C 259.092 259.851,259.687 259.598,260.295 259.483 C 260.903 259.368,262.570 258.975,264.000 258.611 C 265.531 258.221,267.340 258.035,268.400 258.159 C 272.078 258.588,273.611 258.894,273.826 259.242 C 273.948 259.439,274.579 259.600,275.229 259.600 C 275.879 259.600,276.768 259.780,277.205 260.000 C 277.642 260.220,278.358 260.580,278.795 260.800 C 279.232 261.020,280.222 261.200,280.995 261.200 C 281.768 261.200,282.400 261.380,282.400 261.600 C 282.400 261.847,284.467 262.000,287.800 262.000 C 291.133 262.000,293.200 261.847,293.200 261.600 C 293.200 261.380,293.530 261.200,293.932 261.200 C 294.335 261.200,294.920 260.705,295.232 260.100 C 295.544 259.495,295.889 258.910,295.999 258.800 C 297.232 257.571,298.107 253.449,298.121 248.800 C 298.135 244.174,296.687 234.400,295.988 234.400 C 295.805 234.400,295.598 233.995,295.528 233.500 C 295.263 231.636,290.800 233.197,290.800 235.154 C 290.800 235.746,288.995 237.600,288.418 237.600 C 288.188 237.600,288.000 237.330,288.000 237.000 C 288.000 236.670,288.180 236.400,288.400 236.400 C 288.620 236.400,288.801 236.175,288.802 235.900 C 288.803 235.625,289.253 234.514,289.802 233.432 C 290.351 232.350,290.800 231.135,290.800 230.732 C 290.800 230.329,290.980 230.000,291.200 230.000 C 291.420 230.000,291.600 229.370,291.600 228.600 C 291.600 227.830,291.780 227.200,292.000 227.200 C 292.220 227.200,292.400 226.480,292.400 225.600 C 292.400 224.720,292.580 224.000,292.800 224.000 C 293.020 224.000,293.200 223.190,293.200 222.200 C 293.200 221.210,293.380 220.400,293.600 220.400 C 293.820 220.400,294.000 219.500,294.000 218.400 C 294.000 217.300,294.180 216.400,294.400 216.400 C 294.620 216.400,294.800 215.410,294.800 214.200 C 294.800 212.990,294.980 212.000,295.200 212.000 C 295.420 212.000,295.600 211.136,295.600 210.080 C 295.600 209.024,295.755 207.989,295.944 207.780 C 296.382 207.295,297.766 200.807,298.264 196.900 C 298.383 195.965,298.642 195.200,298.840 195.200 C 299.038 195.200,299.200 194.660,299.200 194.000 C 299.200 193.340,299.380 192.800,299.600 192.800 C 299.820 192.800,300.000 192.271,300.000 191.624 C 300.000 190.977,300.180 190.336,300.400 190.200 C 300.620 190.064,300.800 189.423,300.800 188.776 C 300.800 188.129,300.980 187.600,301.200 187.600 C 301.420 187.600,301.600 187.060,301.600 186.400 C 301.600 185.740,301.780 185.200,302.000 185.200 C 302.220 185.200,302.400 184.491,302.400 183.624 C 302.400 182.757,302.580 181.936,302.800 181.800 C 303.020 181.664,303.200 180.843,303.200 179.976 C 303.200 179.109,303.352 178.400,303.538 178.400 C 303.723 178.400,304.125 176.915,304.431 175.100 C 305.535 168.542,304.893 151.600,303.541 151.600 C 303.353 151.600,303.200 151.071,303.200 150.424 C 303.200 149.777,303.020 149.136,302.800 149.000 C 302.580 148.864,302.400 148.223,302.400 147.576 C 302.400 146.929,302.220 146.400,302.000 146.400 C 301.780 146.400,301.600 146.166,301.600 145.880 C 301.600 145.144,300.659 143.207,300.300 143.203 C 300.135 143.201,300.000 142.840,300.000 142.400 C 300.000 141.960,299.865 141.599,299.700 141.597 C 299.535 141.595,299.192 141.145,298.938 140.597 C 298.465 139.577,299.217 139.057,299.800 140.000 C 299.936 140.220,300.305 140.400,300.619 140.400 C 301.846 140.400,306.000 144.572,306.000 145.805 C 306.000 146.132,306.180 146.400,306.400 146.400 C 306.620 146.400,306.800 146.940,306.800 147.600 C 306.800 148.260,306.980 148.800,307.200 148.800 C 307.420 148.800,307.600 149.419,307.600 150.176 C 307.600 150.933,307.780 151.664,308.000 151.800 C 308.220 151.936,308.400 152.656,308.400 153.400 C 308.400 154.144,308.580 154.864,308.800 155.000 C 309.020 155.136,309.200 155.946,309.200 156.800 C 309.200 157.654,309.380 158.464,309.600 158.600 C 309.820 158.736,310.000 159.186,310.000 159.600 C 310.000 160.616,310.632 160.938,312.480 160.865 C 314.001 160.806,316.000 159.416,316.000 158.418 C 316.000 158.188,316.180 158.000,316.400 158.000 C 316.620 158.000,316.800 157.680,316.800 157.288 C 316.800 156.897,317.160 156.317,317.600 156.000 C 318.040 155.683,318.400 155.103,318.400 154.712 C 318.400 154.320,318.580 154.000,318.800 154.000 C 319.020 154.000,319.200 153.659,319.200 153.243 C 319.200 152.826,319.470 152.382,319.800 152.255 C 320.130 152.129,320.400 151.659,320.400 151.213 C 320.400 150.766,320.580 150.400,320.800 150.400 C 321.020 150.400,321.200 149.871,321.200 149.224 C 321.200 148.577,321.380 147.936,321.600 147.800 C 322.098 147.492,322.137 138.656,321.644 137.695 C 321.449 137.313,320.954 136.307,320.544 135.460 C 319.727 133.770,315.937 129.600,315.218 129.600 C 314.970 129.600,314.380 129.240,313.908 128.800 C 313.436 128.360,312.644 128.000,312.148 128.000 C 311.653 128.000,311.136 127.820,311.000 127.600 C 310.864 127.380,310.403 127.200,309.976 127.200 C 309.549 127.200,309.200 127.028,309.200 126.818 C 309.200 126.608,308.525 126.328,307.700 126.196 C 306.875 126.064,305.887 125.786,305.505 125.578 C 304.644 125.109,291.698 125.128,290.600 125.600 M184.600 143.600 C 184.464 143.820,183.643 144.000,182.776 144.000 C 181.909 144.000,181.200 144.180,181.200 144.400 C 181.200 144.620,180.750 144.800,180.200 144.800 C 179.650 144.800,179.200 144.941,179.200 145.114 C 179.200 145.286,178.682 145.733,178.049 146.107 C 176.742 146.880,174.400 148.986,174.400 149.389 C 174.400 149.860,173.276 150.800,172.713 150.800 C 172.413 150.800,171.372 151.520,170.400 152.400 C 169.428 153.280,168.400 154.000,168.116 154.000 C 167.832 154.000,167.600 154.180,167.600 154.400 C 167.600 154.620,167.186 154.800,166.680 154.800 C 166.174 154.800,165.589 154.964,165.380 155.165 C 165.171 155.365,164.010 155.627,162.800 155.747 C 161.590 155.866,159.856 156.079,158.947 156.220 C 157.914 156.379,157.192 156.311,157.023 156.038 C 156.874 155.797,156.327 155.600,155.807 155.600 C 154.895 155.600,152.400 153.527,152.400 152.769 C 152.400 152.566,152.130 152.400,151.800 152.400 C 151.470 152.400,151.200 152.220,151.200 152.000 C 151.200 151.780,150.840 151.600,150.400 151.600 C 149.960 151.600,149.600 151.420,149.600 151.200 C 149.600 150.980,149.375 150.800,149.100 150.800 C 148.825 150.799,148.077 150.349,147.438 149.800 C 146.089 148.640,143.268 148.447,141.600 149.400 C 141.050 149.714,139.655 149.978,138.500 149.986 C 137.345 149.994,136.400 150.180,136.400 150.400 C 136.400 150.622,135.341 150.800,134.024 150.800 C 132.717 150.800,131.536 150.980,131.400 151.200 C 131.264 151.420,130.263 151.600,129.176 151.600 C 128.089 151.600,127.200 151.780,127.200 152.000 C 127.200 152.220,126.390 152.400,125.400 152.400 C 124.410 152.400,123.600 152.580,123.600 152.800 C 123.600 153.020,123.184 153.200,122.675 153.200 C 122.167 153.200,121.364 153.560,120.892 154.000 C 120.420 154.440,119.818 154.800,119.555 154.800 C 119.023 154.800,116.000 157.932,116.000 158.483 C 116.000 158.676,115.640 159.220,115.200 159.692 C 114.760 160.164,114.400 160.967,114.400 161.475 C 114.400 161.984,114.220 162.400,114.000 162.400 C 113.780 162.400,113.600 163.030,113.600 163.800 C 113.600 164.570,113.420 165.200,113.200 165.200 C 112.980 165.200,112.800 165.920,112.800 166.800 C 112.800 167.680,112.620 168.400,112.400 168.400 C 112.180 168.400,112.000 168.994,112.000 169.720 C 112.000 170.446,111.814 171.226,111.586 171.454 C 111.359 171.681,110.990 172.842,110.766 174.034 C 110.543 175.225,110.254 176.725,110.125 177.366 C 109.927 178.348,110.119 178.735,111.345 179.827 C 112.145 180.539,112.800 181.279,112.800 181.472 C 112.800 181.665,113.160 182.083,113.600 182.400 C 114.040 182.717,114.400 183.225,114.400 183.528 C 114.400 183.831,114.940 184.583,115.600 185.200 C 116.260 185.817,116.800 186.609,116.800 186.960 C 116.800 187.312,116.980 187.600,117.200 187.600 C 117.420 187.600,117.600 187.960,117.600 188.400 C 117.600 188.840,117.777 189.200,117.992 189.200 C 118.208 189.200,118.498 189.650,118.636 190.200 C 118.774 190.750,119.047 191.200,119.243 191.200 C 119.440 191.200,119.600 191.560,119.600 192.000 C 119.600 192.440,119.780 192.800,120.000 192.800 C 120.220 192.800,120.400 193.036,120.400 193.325 C 120.400 193.613,120.760 194.236,121.200 194.708 C 121.640 195.180,122.000 195.830,122.000 196.152 C 122.000 196.839,125.101 199.600,125.872 199.600 C 126.162 199.600,126.400 199.780,126.400 200.000 C 126.400 200.220,126.749 200.400,127.176 200.400 C 127.603 200.400,128.064 200.580,128.200 200.800 C 128.965 202.038,132.800 200.895,132.800 199.429 C 132.800 199.083,132.980 198.800,133.200 198.800 C 133.420 198.800,133.600 198.170,133.600 197.400 C 133.600 196.630,133.780 196.000,134.000 196.000 C 134.220 196.000,134.406 195.325,134.413 194.500 C 134.420 193.675,134.690 192.651,135.013 192.224 C 135.336 191.796,135.600 190.952,135.600 190.347 C 135.600 189.742,135.780 189.136,136.000 189.000 C 136.220 188.864,136.400 188.054,136.400 187.200 C 136.400 186.346,136.580 185.536,136.800 185.400 C 137.020 185.264,137.200 184.094,137.200 182.800 C 137.200 181.506,137.380 180.336,137.600 180.200 C 137.820 180.064,138.000 179.323,138.000 178.553 C 138.000 177.721,138.162 177.253,138.400 177.400 C 138.644 177.551,138.800 180.604,138.800 185.224 C 138.800 191.692,138.888 192.800,139.400 192.800 C 139.730 192.800,140.000 192.980,140.000 193.200 C 140.000 193.420,140.810 193.600,141.800 193.600 C 142.790 193.600,143.600 193.420,143.600 193.200 C 143.600 192.980,144.410 192.800,145.400 192.800 C 146.390 192.800,147.200 192.620,147.200 192.400 C 147.200 192.154,149.200 192.000,152.400 192.000 C 155.600 192.000,157.600 192.154,157.600 192.400 C 157.600 192.620,158.039 192.800,158.576 192.800 C 159.113 192.800,159.664 192.980,159.800 193.200 C 159.936 193.420,160.397 193.600,160.824 193.600 C 161.251 193.600,161.600 193.780,161.600 194.000 C 161.600 194.220,161.960 194.400,162.400 194.400 C 162.840 194.400,163.200 194.580,163.200 194.800 C 163.200 195.020,163.650 195.200,164.200 195.200 C 164.750 195.200,165.200 195.380,165.200 195.600 C 165.200 195.820,165.515 196.006,165.900 196.013 C 166.285 196.020,166.949 196.290,167.376 196.613 C 168.455 197.429,172.741 197.419,173.055 196.600 C 173.182 196.270,173.600 196.000,173.983 196.000 C 174.367 196.000,175.246 195.460,175.937 194.800 C 176.628 194.140,177.339 193.600,177.518 193.600 C 177.697 193.600,178.531 192.970,179.372 192.200 C 180.213 191.430,181.068 190.800,181.272 190.800 C 181.829 190.800,190.400 182.209,190.400 181.651 C 190.400 181.384,190.760 180.780,191.200 180.308 C 191.640 179.836,192.000 179.213,192.000 178.925 C 192.000 178.636,192.180 178.400,192.400 178.400 C 192.620 178.400,192.800 178.040,192.800 177.600 C 192.800 177.160,192.980 176.800,193.200 176.800 C 193.420 176.800,193.600 176.440,193.600 176.000 C 193.600 175.560,193.780 175.200,194.000 175.200 C 194.220 175.200,194.400 174.750,194.400 174.200 C 194.400 173.650,194.580 173.200,194.800 173.200 C 195.020 173.200,195.200 172.964,195.200 172.675 C 195.200 172.387,195.536 171.791,195.946 171.351 C 196.356 170.910,197.004 169.841,197.386 168.975 C 198.660 166.089,198.933 165.600,199.268 165.600 C 199.450 165.600,199.600 165.240,199.600 164.800 C 199.600 164.360,199.780 164.000,200.000 164.000 C 200.220 164.000,200.400 163.766,200.400 163.480 C 200.400 162.744,201.341 160.807,201.700 160.803 C 201.865 160.801,202.000 160.440,202.000 160.000 C 202.000 159.560,202.180 159.200,202.400 159.200 C 202.620 159.200,202.800 158.930,202.800 158.600 C 202.800 158.270,202.980 158.000,203.200 158.000 C 203.420 158.000,203.600 157.738,203.600 157.418 C 203.600 157.098,204.005 156.395,204.500 155.856 C 208.575 151.419,209.093 148.000,205.692 148.000 C 205.227 148.000,204.736 147.820,204.600 147.600 C 204.464 147.380,203.643 147.200,202.776 147.200 C 201.909 147.200,201.200 147.020,201.200 146.800 C 201.200 146.580,200.570 146.400,199.800 146.400 C 199.030 146.400,198.400 146.220,198.400 146.000 C 198.400 145.780,197.500 145.600,196.400 145.600 C 195.300 145.600,194.400 145.420,194.400 145.200 C 194.400 144.980,193.590 144.800,192.600 144.800 C 191.610 144.800,190.800 144.620,190.800 144.400 C 190.800 144.180,189.911 144.000,188.824 144.000 C 187.737 144.000,186.736 143.820,186.600 143.600 C 186.464 143.380,186.014 143.200,185.600 143.200 C 185.186 143.200,184.736 143.380,184.600 143.600 M80.300 168.487 C 78.005 171.359,81.664 176.615,84.000 173.800 C 84.274 173.470,85.029 173.200,85.678 173.200 C 86.726 173.200,86.790 173.267,86.257 173.800 C 85.927 174.130,85.464 174.400,85.229 174.400 C 84.993 174.400,84.800 174.580,84.800 174.800 C 84.800 175.020,84.575 175.200,84.300 175.200 C 83.637 175.201,81.600 176.971,81.600 177.547 C 81.600 177.796,81.420 178.000,81.200 178.000 C 80.980 178.000,80.800 178.171,80.800 178.379 C 80.800 178.588,80.350 179.244,79.800 179.838 C 79.250 180.431,78.800 181.161,78.800 181.458 C 78.800 181.756,78.620 182.000,78.400 182.000 C 77.274 182.000,77.988 186.887,79.400 188.853 C 80.170 189.925,80.800 190.946,80.800 191.123 C 80.800 191.733,83.510 194.400,84.130 194.400 C 84.473 194.400,84.864 194.580,85.000 194.800 C 85.136 195.020,86.317 195.200,87.624 195.200 C 88.941 195.200,90.000 195.378,90.000 195.600 C 90.000 195.820,90.283 196.000,90.629 196.000 C 90.974 196.000,91.527 196.270,91.857 196.600 C 92.187 196.930,92.884 197.200,93.405 197.200 C 93.926 197.200,94.464 197.380,94.600 197.600 C 95.478 199.020,101.600 196.072,101.600 194.229 C 101.600 193.883,101.780 193.600,102.000 193.600 C 102.220 193.600,102.400 193.060,102.400 192.400 C 102.400 191.740,102.580 191.200,102.800 191.200 C 103.031 191.200,103.200 189.933,103.200 188.200 C 103.200 186.467,103.031 185.200,102.800 185.200 C 102.580 185.200,102.400 184.880,102.400 184.488 C 102.400 184.097,102.040 183.517,101.600 183.200 C 101.160 182.883,100.800 182.392,100.800 182.108 C 100.800 181.070,98.700 179.200,97.534 179.200 C 96.851 179.200,96.400 178.986,96.400 178.662 C 96.400 177.827,95.124 176.881,93.800 176.733 C 92.884 176.632,92.568 176.372,92.464 175.635 C 92.289 174.395,91.484 173.600,90.405 173.600 C 89.862 173.600,89.656 173.432,89.839 173.137 C 90.783 171.610,89.428 168.400,87.840 168.400 C 87.514 168.400,87.136 168.220,87.000 168.000 C 86.470 167.142,81.060 167.535,80.300 168.487 M107.300 186.265 C 106.709 186.503,106.617 189.200,107.200 189.200 C 107.901 189.200,107.630 192.323,106.800 193.800 C 106.360 194.583,106.000 195.418,106.000 195.655 C 106.000 196.987,100.332 201.200,98.539 201.200 C 98.022 201.200,97.600 201.399,97.600 201.642 C 97.600 202.073,96.927 202.032,93.096 201.371 C 92.269 201.228,91.494 200.951,91.373 200.756 C 90.852 199.914,88.499 200.371,88.311 201.351 C 88.120 202.352,89.068 205.200,89.593 205.200 C 89.761 205.200,90.587 205.830,91.428 206.600 C 92.269 207.370,93.148 208.000,93.383 208.000 C 93.618 208.000,94.168 208.487,94.605 209.083 C 95.042 209.678,95.715 210.488,96.100 210.883 C 96.485 211.277,96.800 211.703,96.800 211.829 C 96.800 213.032,100.056 214.000,104.105 214.000 C 106.001 214.000,107.664 214.180,107.800 214.400 C 107.936 214.620,108.566 214.800,109.200 214.800 C 109.834 214.800,110.464 214.980,110.600 215.200 C 110.736 215.420,111.287 215.600,111.824 215.600 C 112.361 215.600,112.800 215.780,112.800 216.000 C 112.800 216.220,113.160 216.400,113.600 216.400 C 114.040 216.400,114.400 216.580,114.400 216.800 C 114.400 217.020,114.760 217.200,115.200 217.200 C 115.640 217.200,116.000 217.380,116.000 217.600 C 116.000 217.820,116.360 218.000,116.800 218.000 C 117.240 218.000,117.600 218.180,117.600 218.400 C 117.600 218.620,118.031 218.800,118.557 218.800 C 119.084 218.800,119.618 219.070,119.745 219.400 C 119.871 219.730,120.251 220.000,120.587 220.000 C 120.924 220.000,121.200 220.180,121.200 220.400 C 121.200 220.620,121.560 220.800,122.000 220.800 C 122.440 220.800,122.800 220.936,122.800 221.102 C 122.800 221.269,123.385 221.640,124.100 221.929 C 124.815 222.217,125.713 222.621,126.095 222.826 C 126.477 223.032,127.062 223.200,127.395 223.200 C 127.728 223.200,128.000 223.380,128.000 223.600 C 128.000 223.820,128.360 224.000,128.800 224.000 C 129.240 224.000,129.600 224.180,129.600 224.400 C 129.600 224.620,129.960 224.800,130.400 224.800 C 130.840 224.800,131.200 224.980,131.200 225.200 C 131.200 225.420,131.560 225.600,132.000 225.600 C 132.440 225.600,132.800 225.780,132.800 226.000 C 132.800 226.220,133.231 226.400,133.757 226.400 C 134.284 226.400,134.818 226.670,134.945 227.000 C 135.071 227.330,135.451 227.600,135.787 227.600 C 136.124 227.600,136.400 227.780,136.400 228.000 C 136.400 228.220,136.760 228.400,137.200 228.400 C 137.640 228.400,138.000 228.580,138.000 228.800 C 138.000 229.020,138.349 229.200,138.776 229.200 C 139.203 229.200,139.664 229.380,139.800 229.600 C 139.936 229.820,140.397 230.000,140.824 230.000 C 141.251 230.000,141.600 230.180,141.600 230.400 C 141.600 230.620,142.016 230.800,142.525 230.800 C 143.033 230.800,143.836 231.160,144.308 231.600 C 144.780 232.040,145.624 232.400,146.183 232.400 C 146.742 232.400,147.200 232.580,147.200 232.800 C 147.200 233.020,147.549 233.200,147.976 233.200 C 148.403 233.200,148.864 233.380,149.000 233.600 C 149.136 233.820,149.831 234.000,150.544 234.000 C 151.257 234.000,152.011 234.154,152.220 234.342 C 152.841 234.902,156.655 236.000,157.975 236.000 C 158.649 236.000,159.200 236.180,159.200 236.400 C 159.200 236.620,159.729 236.800,160.376 236.800 C 161.023 236.800,161.664 236.980,161.800 237.200 C 161.936 237.420,162.937 237.600,164.024 237.600 C 165.111 237.600,166.000 237.780,166.000 238.000 C 166.000 238.220,166.529 238.400,167.176 238.400 C 167.823 238.400,168.464 238.580,168.600 238.800 C 168.736 239.020,170.097 239.200,171.624 239.200 C 173.208 239.200,174.400 239.372,174.400 239.600 C 174.400 239.825,175.525 240.000,176.976 240.000 C 178.393 240.000,179.664 240.180,179.800 240.400 C 179.936 240.620,181.196 240.800,182.600 240.800 C 184.004 240.800,185.264 240.620,185.400 240.400 C 185.536 240.180,185.999 240.000,186.429 240.000 C 187.275 240.000,188.820 239.245,189.294 238.600 C 189.738 237.996,189.658 236.000,189.189 236.000 C 188.964 236.000,187.986 235.235,187.016 234.300 C 184.114 231.502,182.259 230.000,181.703 230.000 C 181.204 230.000,177.600 226.663,177.600 226.200 C 177.600 226.078,176.835 225.195,175.900 224.238 C 173.389 221.666,171.601 219.611,171.591 219.287 C 171.586 219.129,171.230 218.550,170.800 218.000 C 170.370 217.450,170.014 216.685,170.009 216.300 C 170.004 215.915,169.820 215.600,169.600 215.600 C 169.380 215.600,169.200 215.358,169.200 215.062 C 169.200 214.338,167.897 213.200,167.069 213.200 C 166.701 213.200,166.400 213.020,166.400 212.800 C 166.400 212.571,165.200 212.400,163.600 212.400 C 162.000 212.400,160.800 212.571,160.800 212.800 C 160.800 213.020,160.517 213.200,160.171 213.200 C 159.482 213.200,159.445 213.230,156.227 216.381 C 155.002 217.580,154.000 218.705,154.000 218.881 C 154.000 219.056,153.640 219.200,153.200 219.200 C 152.760 219.200,152.400 219.380,152.400 219.600 C 152.400 219.820,151.860 220.000,151.200 220.000 C 150.540 220.000,150.000 220.180,150.000 220.400 C 150.000 220.620,149.730 220.800,149.400 220.800 C 149.070 220.800,148.800 220.980,148.800 221.200 C 148.800 221.420,148.451 221.600,148.024 221.600 C 147.597 221.600,147.136 221.780,147.000 222.000 C 146.864 222.220,145.334 222.400,143.600 222.400 C 141.866 222.400,140.336 222.220,140.200 222.000 C 140.064 221.780,139.589 221.600,139.145 221.600 C 138.367 221.600,136.216 219.614,134.644 217.444 C 134.228 216.870,133.688 216.397,133.444 216.393 C 132.987 216.386,131.200 212.958,131.200 212.088 C 131.200 211.820,131.020 211.600,130.800 211.600 C 130.580 211.600,130.400 210.822,130.400 209.872 C 130.400 207.728,128.738 205.600,127.064 205.600 C 126.479 205.600,126.000 205.420,126.000 205.200 C 126.000 204.980,125.640 204.800,125.200 204.800 C 124.760 204.800,124.400 204.620,124.400 204.400 C 124.400 204.180,124.040 204.000,123.600 204.000 C 123.160 204.000,122.800 203.822,122.800 203.605 C 122.800 203.388,122.039 202.730,121.109 202.142 C 118.977 200.797,118.400 200.219,118.400 199.429 C 118.400 199.083,118.220 198.800,118.000 198.800 C 117.780 198.800,117.600 198.440,117.600 198.000 C 117.600 197.560,117.420 197.200,117.200 197.200 C 116.980 197.200,116.800 196.851,116.800 196.424 C 116.800 195.997,116.620 195.536,116.400 195.400 C 116.180 195.264,116.000 194.724,116.000 194.200 C 116.000 193.676,115.820 193.136,115.600 193.000 C 115.380 192.864,115.200 192.403,115.200 191.976 C 115.200 191.549,115.020 191.200,114.800 191.200 C 114.580 191.200,114.400 190.922,114.400 190.582 C 114.400 190.242,113.995 189.530,113.500 189.001 C 113.005 188.472,112.384 187.805,112.119 187.519 C 110.762 186.053,108.976 185.589,107.300 186.265 M150.000 196.800 C 150.000 197.028,148.808 197.200,147.224 197.200 C 145.697 197.200,144.336 197.380,144.200 197.600 C 144.064 197.820,143.423 198.000,142.776 198.000 C 142.129 198.000,141.600 198.180,141.600 198.400 C 141.600 198.620,141.269 198.800,140.864 198.800 C 139.821 198.800,136.400 202.142,136.400 203.160 C 136.400 203.622,136.220 204.000,136.000 204.000 C 135.780 204.000,135.600 204.360,135.600 204.800 C 135.600 205.240,135.420 205.600,135.200 205.600 C 134.974 205.600,134.800 206.734,134.800 208.203 C 134.800 211.576,136.135 213.414,138.291 213.009 L 139.600 212.764 139.600 214.438 C 139.600 216.337,140.355 217.167,142.100 217.187 C 142.705 217.194,143.200 217.380,143.200 217.600 C 143.200 218.627,147.488 218.030,148.227 216.900 C 149.314 215.239,150.973 214.000,152.111 214.000 C 152.698 214.000,155.335 211.267,155.723 210.257 C 155.861 209.896,156.211 209.600,156.499 209.600 C 156.787 209.600,157.283 209.240,157.600 208.800 C 157.939 208.330,158.635 208.000,159.288 208.000 C 159.900 208.000,160.400 207.816,160.400 207.591 C 160.400 207.344,161.598 207.206,163.435 207.242 C 167.044 207.312,167.626 206.916,167.726 204.326 C 167.794 202.567,167.052 201.200,166.029 201.200 C 165.793 201.200,165.600 201.020,165.600 200.800 C 165.600 200.580,165.240 200.400,164.800 200.400 C 164.360 200.400,164.000 200.220,164.000 200.000 C 164.000 199.780,163.640 199.600,163.200 199.600 C 162.760 199.600,162.400 199.420,162.400 199.200 C 162.400 198.980,162.051 198.800,161.624 198.800 C 161.197 198.800,160.736 198.620,160.600 198.400 C 160.464 198.180,159.834 198.000,159.200 198.000 C 158.566 198.000,157.936 197.820,157.800 197.600 C 157.664 197.380,156.584 197.200,155.400 197.200 C 154.216 197.200,153.136 197.020,153.000 196.800 C 152.864 196.580,152.133 196.400,151.376 196.400 C 150.619 196.400,150.000 196.580,150.000 196.800 M83.200 214.600 C 83.200 218.733,83.349 221.200,83.600 221.200 C 83.838 221.200,84.000 222.725,84.000 224.976 C 84.000 227.063,84.179 228.863,84.400 229.000 C 84.620 229.136,84.800 230.137,84.800 231.224 C 84.800 232.311,84.980 233.200,85.200 233.200 C 85.420 233.200,85.600 233.920,85.600 234.800 C 85.600 235.680,85.780 236.400,86.000 236.400 C 86.220 236.400,86.400 236.929,86.400 237.576 C 86.400 238.223,86.580 238.864,86.800 239.000 C 87.020 239.136,87.200 239.582,87.200 239.991 C 87.200 240.400,87.500 241.335,87.868 242.068 C 89.084 244.495,89.200 244.784,89.200 245.395 C 89.200 245.728,89.380 246.000,89.600 246.000 C 89.820 246.000,90.000 246.360,90.000 246.800 C 90.000 247.240,90.180 247.600,90.400 247.600 C 90.620 247.600,90.800 247.960,90.800 248.400 C 90.800 248.840,90.980 249.200,91.200 249.200 C 91.420 249.200,91.600 249.560,91.600 250.000 C 91.600 250.440,91.780 250.800,92.000 250.800 C 92.220 250.800,92.400 251.070,92.400 251.400 C 92.400 251.730,92.580 252.000,92.800 252.000 C 93.020 252.000,93.200 252.263,93.200 252.583 C 93.200 252.904,94.190 254.114,95.400 255.271 C 96.610 256.429,97.600 257.606,97.600 257.888 C 97.600 258.169,97.780 258.400,98.000 258.400 C 98.220 258.400,98.400 258.670,98.400 259.000 C 98.400 259.330,98.580 259.600,98.800 259.600 C 99.020 259.600,99.200 260.039,99.200 260.576 C 99.200 261.113,99.380 261.664,99.600 261.800 C 99.820 261.936,100.000 262.397,100.000 262.824 C 100.000 263.251,100.180 263.600,100.400 263.600 C 100.620 263.600,100.800 264.140,100.800 264.800 C 100.800 265.460,100.980 266.000,101.200 266.000 C 101.420 266.000,101.600 266.328,101.600 266.729 C 101.600 267.565,105.326 271.200,106.183 271.200 C 106.496 271.200,106.864 271.380,107.000 271.600 C 107.136 271.820,108.227 272.000,109.424 272.000 C 110.621 272.000,111.600 271.820,111.600 271.600 C 111.600 271.380,111.951 271.200,112.380 271.200 C 112.815 271.200,113.654 270.537,114.280 269.700 C 114.896 268.875,115.535 268.140,115.700 268.067 C 115.865 267.993,116.004 267.633,116.009 267.267 C 116.014 266.900,116.370 266.150,116.800 265.600 C 117.230 265.050,117.586 264.195,117.591 263.700 C 117.596 263.205,117.780 262.800,118.000 262.800 C 118.220 262.800,118.400 262.350,118.400 261.800 C 118.400 261.250,118.580 260.800,118.800 260.800 C 119.020 260.800,119.206 260.395,119.213 259.900 C 119.220 259.405,119.490 258.651,119.813 258.224 C 120.136 257.796,120.400 257.042,120.400 256.547 C 120.400 256.052,120.580 255.536,120.800 255.400 C 121.020 255.264,121.200 254.634,121.200 254.000 C 121.200 253.366,121.380 252.736,121.600 252.600 C 121.820 252.464,122.000 251.834,122.000 251.200 C 122.000 250.566,122.180 249.936,122.400 249.800 C 122.620 249.664,122.800 249.034,122.800 248.400 C 122.800 247.766,122.980 247.136,123.200 247.000 C 123.420 246.864,123.600 246.133,123.600 245.376 C 123.600 244.619,123.780 244.000,124.000 244.000 C 124.220 244.000,124.400 243.280,124.400 242.400 C 124.400 241.520,124.580 240.800,124.800 240.800 C 125.020 240.800,125.200 240.091,125.200 239.224 C 125.200 238.357,125.380 237.536,125.600 237.400 C 125.820 237.264,126.000 236.184,126.000 235.000 C 126.000 233.816,126.180 232.736,126.400 232.600 C 126.620 232.464,126.800 231.823,126.800 231.176 C 126.800 230.529,126.620 230.000,126.400 230.000 C 126.180 230.000,126.000 229.717,126.000 229.371 C 126.000 228.627,125.058 227.600,124.375 227.600 C 124.111 227.600,123.603 227.280,123.247 226.890 C 122.339 225.893,120.544 224.800,119.814 224.800 C 119.476 224.800,119.200 224.620,119.200 224.400 C 119.200 224.180,118.840 224.000,118.400 224.000 C 117.960 224.000,117.600 223.820,117.600 223.600 C 117.600 223.380,117.240 223.200,116.800 223.200 C 116.360 223.200,116.000 223.020,116.000 222.800 C 116.000 222.580,115.640 222.400,115.200 222.400 C 114.760 222.400,114.400 222.220,114.400 222.000 C 114.400 221.780,114.051 221.600,113.624 221.600 C 113.197 221.600,112.736 221.420,112.600 221.200 C 112.464 220.980,112.003 220.800,111.576 220.800 C 111.149 220.800,110.800 220.620,110.800 220.400 C 110.800 220.180,110.440 220.000,110.000 220.000 C 109.560 220.000,109.200 219.820,109.200 219.600 C 109.200 219.378,108.133 219.200,106.800 219.200 C 105.480 219.200,104.400 219.350,104.400 219.532 C 104.400 219.715,103.967 220.096,103.439 220.379 C 102.018 221.139,101.890 222.258,101.726 235.300 C 101.634 242.630,101.428 247.200,101.189 247.200 C 100.975 247.200,100.800 246.311,100.800 245.224 C 100.800 244.137,100.620 243.136,100.400 243.000 C 100.180 242.864,100.000 241.874,100.000 240.800 C 100.000 239.726,99.820 238.736,99.600 238.600 C 99.380 238.464,99.200 237.564,99.200 236.600 C 99.200 235.636,99.020 234.736,98.800 234.600 C 98.558 234.451,98.400 231.604,98.400 227.400 C 98.400 223.196,98.242 220.349,98.000 220.200 C 97.780 220.064,97.600 219.693,97.600 219.376 C 97.600 218.620,96.164 217.200,95.400 217.200 C 95.070 217.200,94.800 217.020,94.800 216.800 C 94.800 216.580,94.506 216.400,94.147 216.400 C 93.416 216.400,91.601 214.475,91.600 213.700 C 91.600 213.425,91.420 213.200,91.200 213.200 C 90.980 213.200,90.797 212.975,90.793 212.700 C 90.772 211.170,86.890 208.000,85.039 208.000 L 83.200 208.000 83.200 214.600 M131.862 233.131 C 131.498 233.534,131.200 234.344,131.200 234.931 C 131.200 235.519,131.020 236.000,130.800 236.000 C 130.580 236.000,130.400 236.619,130.400 237.376 C 130.400 238.133,130.220 238.864,130.000 239.000 C 129.780 239.136,129.600 239.867,129.600 240.624 C 129.600 241.381,129.420 242.000,129.200 242.000 C 128.980 242.000,128.800 242.529,128.800 243.176 C 128.800 243.823,128.620 244.464,128.400 244.600 C 128.180 244.736,128.000 245.636,128.000 246.600 C 128.000 247.564,127.820 248.464,127.600 248.600 C 127.380 248.736,127.200 249.362,127.200 249.990 C 127.200 250.619,127.010 251.197,126.779 251.274 C 125.884 251.572,124.718 258.400,125.561 258.400 C 125.803 258.400,126.000 258.736,126.000 259.146 C 126.000 260.101,127.483 262.000,128.229 262.000 C 128.543 262.000,128.800 262.180,128.800 262.400 C 128.800 262.620,129.340 262.800,130.000 262.800 C 130.660 262.800,131.200 262.980,131.200 263.200 C 131.200 263.437,132.659 263.600,134.776 263.600 C 136.743 263.600,138.464 263.420,138.600 263.200 C 138.736 262.980,139.636 262.800,140.600 262.800 C 141.564 262.800,142.464 262.980,142.600 263.200 C 142.736 263.420,143.546 263.600,144.400 263.600 C 145.254 263.600,146.064 263.780,146.200 264.000 C 146.343 264.232,148.537 264.400,151.424 264.400 C 154.475 264.400,156.400 264.245,156.400 264.000 C 156.400 263.780,156.760 263.600,157.200 263.600 C 157.640 263.600,158.000 263.420,158.000 263.200 C 158.000 262.980,158.336 262.800,158.746 262.800 C 159.450 262.800,164.000 258.800,164.000 258.181 C 164.000 256.707,167.149 255.620,168.000 256.800 C 168.638 257.685,175.289 258.026,175.800 257.200 C 175.936 256.980,177.117 256.800,178.424 256.800 C 179.741 256.800,180.800 256.622,180.800 256.400 C 180.800 256.180,181.790 256.000,183.000 256.000 C 184.210 256.000,185.200 255.820,185.200 255.600 C 185.200 255.380,185.920 255.200,186.800 255.200 C 187.680 255.200,188.400 255.020,188.400 254.800 C 188.400 254.580,189.379 254.400,190.576 254.400 C 191.773 254.400,192.864 254.220,193.000 254.000 C 193.136 253.780,193.786 253.600,194.445 253.600 C 195.222 253.600,196.091 253.182,196.915 252.412 L 198.186 251.223 197.423 249.912 C 197.003 249.190,196.530 248.330,196.373 248.000 C 196.216 247.670,195.680 246.545,195.181 245.500 L 194.274 243.600 191.537 243.600 C 189.979 243.600,188.800 243.772,188.800 244.000 C 188.800 244.252,186.067 244.400,181.400 244.400 C 176.733 244.400,174.000 244.252,174.000 244.000 C 174.000 243.771,172.800 243.600,171.200 243.600 C 169.600 243.600,168.400 243.429,168.400 243.200 C 168.400 242.980,167.425 242.800,166.233 242.800 C 165.042 242.800,164.007 242.623,163.933 242.406 C 163.860 242.189,162.900 241.820,161.800 241.586 C 160.700 241.352,159.080 240.977,158.200 240.752 C 157.320 240.526,156.013 240.245,155.296 240.127 C 154.579 240.008,153.894 239.751,153.773 239.556 C 153.652 239.360,153.021 239.200,152.371 239.200 C 151.721 239.200,150.832 239.020,150.395 238.800 C 149.958 238.580,149.242 238.220,148.805 238.000 C 148.368 237.780,147.468 237.600,146.805 237.600 C 146.142 237.600,145.600 237.420,145.600 237.200 C 145.600 236.980,145.150 236.800,144.600 236.800 C 144.050 236.800,143.600 236.620,143.600 236.400 C 143.600 236.180,143.060 236.000,142.400 236.000 C 141.740 236.000,141.200 235.841,141.200 235.647 C 141.200 235.452,140.885 235.192,140.500 235.069 C 140.115 234.945,138.846 234.294,137.680 233.622 C 135.205 232.195,132.886 232.000,131.862 233.131 M198.176 257.387 C 197.749 257.710,196.815 257.980,196.100 257.987 C 195.385 257.994,194.800 258.180,194.800 258.400 C 194.800 258.620,193.990 258.800,193.000 258.800 C 192.010 258.800,191.200 258.980,191.200 259.200 C 191.200 259.420,190.928 259.600,190.595 259.600 C 189.803 259.600,188.388 260.406,187.504 261.361 C 186.864 262.053,186.800 263.227,186.800 274.261 C 186.800 282.087,186.658 286.400,186.400 286.400 C 186.172 286.400,186.000 285.208,186.000 283.624 C 186.000 282.097,185.820 280.736,185.600 280.600 C 185.380 280.464,185.200 279.319,185.200 278.056 C 185.200 276.793,185.035 275.589,184.832 275.380 C 184.630 275.171,184.357 273.740,184.226 272.200 C 184.095 270.660,183.886 268.185,183.761 266.700 C 183.636 265.215,183.389 264.000,183.211 264.000 C 183.032 264.000,182.774 263.550,182.636 263.000 C 182.474 262.354,182.104 262.000,181.592 262.000 C 181.157 262.000,180.800 261.820,180.800 261.600 C 180.800 261.380,180.001 261.200,179.024 261.200 C 178.047 261.200,177.136 261.380,177.000 261.600 C 176.864 261.820,175.604 262.000,174.200 262.000 C 172.796 262.000,171.536 262.180,171.400 262.400 C 171.264 262.620,170.531 262.800,169.771 262.800 C 169.011 262.800,168.077 262.960,167.695 263.155 C 165.233 264.413,162.515 265.600,162.094 265.600 C 161.822 265.600,161.600 265.780,161.600 266.000 C 161.600 266.220,161.328 266.400,160.996 266.400 C 160.664 266.400,159.828 266.940,159.137 267.600 C 158.446 268.260,157.548 268.800,157.141 268.800 C 156.733 268.800,156.400 268.980,156.400 269.200 C 156.400 269.447,154.366 269.600,151.098 269.600 L 145.795 269.600 145.250 270.832 C 144.847 271.741,144.822 272.182,145.152 272.512 C 145.398 272.758,145.600 273.453,145.600 274.056 C 145.600 274.659,145.780 275.264,146.000 275.400 C 146.220 275.536,146.400 276.537,146.400 277.624 C 146.400 278.711,146.560 279.600,146.756 279.600 C 147.093 279.600,147.211 280.051,147.833 283.704 C 147.973 284.531,148.249 285.306,148.444 285.427 C 148.640 285.548,148.800 286.142,148.800 286.747 C 148.800 287.352,149.064 288.196,149.387 288.624 C 149.710 289.051,149.980 289.974,149.987 290.676 C 149.994 291.378,150.180 292.064,150.400 292.200 C 150.620 292.336,150.800 292.977,150.800 293.624 C 150.800 294.271,150.980 294.800,151.200 294.800 C 151.420 294.800,151.600 295.419,151.600 296.176 C 151.600 296.933,151.780 297.664,152.000 297.800 C 152.220 297.936,152.400 298.487,152.400 299.024 C 152.400 299.561,152.580 300.000,152.800 300.000 C 153.020 300.000,153.200 300.542,153.200 301.205 C 153.200 301.868,153.380 302.768,153.600 303.205 C 153.820 303.642,154.180 304.358,154.400 304.795 C 154.620 305.232,154.800 305.916,154.800 306.315 C 154.800 306.714,154.949 307.211,155.130 307.420 C 155.312 307.629,155.706 308.610,156.006 309.600 C 156.306 310.590,156.788 311.755,157.076 312.189 C 157.364 312.623,157.600 313.298,157.600 313.689 C 157.600 314.080,157.780 314.400,158.000 314.400 C 158.220 314.400,158.400 314.816,158.400 315.325 C 158.400 315.833,158.760 316.636,159.200 317.108 C 159.640 317.580,160.000 318.329,160.000 318.771 C 160.000 319.214,160.360 320.217,160.800 321.000 C 161.240 321.783,161.600 322.689,161.600 323.012 C 161.600 323.335,161.735 323.603,161.900 323.606 C 162.065 323.610,162.641 324.510,163.179 325.607 C 163.718 326.704,164.637 328.061,165.223 328.622 L 166.287 329.641 172.243 329.435 C 175.520 329.321,180.540 329.050,183.400 328.833 C 194.976 327.954,195.200 327.831,195.200 322.325 C 195.200 320.412,195.380 318.736,195.600 318.600 C 195.837 318.453,196.000 315.956,196.000 312.456 C 196.000 308.933,196.166 306.394,196.413 306.147 C 196.816 305.744,197.461 299.427,197.836 292.200 C 197.938 290.220,198.190 288.240,198.396 287.800 C 198.601 287.360,198.869 285.740,198.991 284.200 C 199.558 277.033,199.690 276.000,200.033 276.000 C 200.235 276.000,200.400 274.931,200.400 273.624 C 200.400 272.317,200.580 271.136,200.800 271.000 C 201.020 270.864,201.200 269.604,201.200 268.200 C 201.200 266.796,201.380 265.536,201.600 265.400 C 201.820 265.264,202.000 264.454,202.000 263.600 C 202.000 262.746,202.180 261.936,202.400 261.800 C 203.092 261.372,202.894 257.322,202.167 257.043 C 201.035 256.608,198.971 256.786,198.176 257.387 M209.607 257.096 C 208.714 257.446,208.000 258.269,208.000 258.948 C 208.000 259.281,207.820 259.664,207.600 259.800 C 207.380 259.936,207.200 260.937,207.200 262.024 C 207.200 263.111,207.020 264.000,206.800 264.000 C 206.580 264.000,206.400 264.900,206.400 266.000 C 206.400 267.100,206.237 268.000,206.039 268.000 C 205.669 268.000,205.339 270.097,204.952 274.900 C 204.832 276.385,204.569 277.600,204.367 277.600 C 204.165 277.600,204.000 279.004,204.000 280.720 C 204.000 282.436,203.811 284.029,203.579 284.261 C 203.348 284.492,202.979 286.373,202.760 288.441 C 202.541 290.508,202.186 293.820,201.972 295.800 C 201.307 301.934,200.158 321.958,199.775 334.085 L 199.564 340.769 200.725 341.985 C 201.433 342.725,202.290 343.200,202.920 343.200 C 203.488 343.200,204.052 343.361,204.174 343.558 C 204.385 343.900,205.656 344.156,209.600 344.651 C 210.590 344.776,211.571 345.040,211.780 345.239 C 211.989 345.437,213.103 345.600,214.256 345.600 C 215.409 345.600,216.464 345.780,216.600 346.000 C 216.736 346.220,217.737 346.400,218.824 346.400 C 219.911 346.400,220.800 346.580,220.800 346.800 C 220.800 347.020,221.689 347.200,222.776 347.200 C 223.863 347.200,224.864 347.380,225.000 347.600 C 225.136 347.820,226.137 348.000,227.224 348.000 C 228.311 348.000,229.200 348.180,229.200 348.400 C 229.200 349.151,230.998 348.801,232.127 347.830 L 233.254 346.860 233.011 342.730 C 232.541 334.775,232.364 319.531,232.744 319.765 C 233.125 320.001,233.259 320.691,233.990 326.187 C 234.223 327.940,234.591 329.551,234.807 329.767 C 235.023 329.983,235.200 330.754,235.200 331.480 C 235.200 332.206,235.380 332.800,235.600 332.800 C 235.820 332.800,236.000 333.689,236.000 334.776 C 236.000 335.863,236.180 336.864,236.400 337.000 C 236.620 337.136,236.800 337.957,236.800 338.824 C 236.800 339.691,236.980 340.400,237.200 340.400 C 237.420 340.400,237.600 341.199,237.600 342.176 C 237.600 343.153,237.780 344.064,238.000 344.200 C 238.220 344.336,238.400 344.887,238.400 345.424 C 238.400 345.961,238.580 346.400,238.800 346.400 C 239.020 346.400,239.200 346.805,239.200 347.300 C 239.201 349.129,241.831 351.115,245.200 351.830 C 247.428 352.303,274.482 352.482,275.400 352.030 C 275.840 351.813,277.190 351.552,278.400 351.449 C 282.026 351.142,285.376 350.471,285.526 350.022 C 285.603 349.790,286.181 349.600,286.810 349.600 C 287.438 349.600,288.064 349.420,288.200 349.200 C 288.336 348.980,289.067 348.800,289.824 348.800 C 290.581 348.800,291.200 348.620,291.200 348.400 C 291.200 348.180,291.652 348.000,292.205 348.000 C 292.758 348.000,293.613 347.792,294.105 347.538 C 296.031 346.542,296.417 346.400,297.195 346.400 C 297.638 346.400,298.000 346.257,298.000 346.082 C 298.000 345.907,298.817 345.427,299.816 345.015 C 301.432 344.349,302.054 343.950,303.883 342.407 C 304.149 342.183,304.554 342.000,304.783 342.000 C 305.012 342.000,305.200 341.820,305.200 341.600 C 305.200 341.380,305.475 341.200,305.811 341.200 C 307.085 341.200,310.000 337.728,310.000 336.211 C 310.000 335.435,309.820 334.800,309.600 334.800 C 309.380 334.800,309.200 334.271,309.200 333.624 C 309.200 332.977,309.020 332.336,308.800 332.200 C 308.580 332.064,308.400 331.603,308.400 331.176 C 308.400 330.749,308.220 330.400,308.000 330.400 C 307.780 330.400,307.600 329.961,307.600 329.424 C 307.600 328.887,307.420 328.336,307.200 328.200 C 306.980 328.064,306.800 327.603,306.800 327.176 C 306.800 326.749,306.620 326.400,306.400 326.400 C 306.180 326.400,306.000 325.948,306.000 325.395 C 306.000 324.842,305.842 324.077,305.649 323.695 C 304.799 322.014,304.000 319.926,304.000 319.386 C 304.000 319.064,303.820 318.800,303.600 318.800 C 303.380 318.800,303.200 317.990,303.200 317.000 C 303.200 316.010,303.020 315.200,302.800 315.200 C 302.580 315.200,302.400 314.660,302.400 314.000 C 302.400 313.340,302.220 312.800,302.000 312.800 C 301.780 312.800,301.600 312.260,301.600 311.600 C 301.600 310.940,301.420 310.400,301.200 310.400 C 300.980 310.400,300.800 309.691,300.800 308.824 C 300.800 307.957,300.620 307.136,300.400 307.000 C 300.180 306.864,300.000 306.223,300.000 305.576 C 300.000 304.929,299.820 304.400,299.600 304.400 C 299.380 304.400,299.200 303.781,299.200 303.024 C 299.200 302.267,299.020 301.536,298.800 301.400 C 298.580 301.264,298.400 300.681,298.400 300.105 C 298.400 299.528,298.227 298.504,298.016 297.828 C 297.804 297.153,297.320 295.475,296.940 294.100 C 296.560 292.725,296.103 291.600,295.924 291.600 C 295.746 291.600,295.600 290.700,295.600 289.600 C 295.600 288.500,295.420 287.600,295.200 287.600 C 294.980 287.600,294.800 286.790,294.800 285.800 C 294.800 284.810,294.620 284.000,294.400 284.000 C 294.180 284.000,294.000 283.280,294.000 282.400 C 294.000 281.520,293.820 280.800,293.600 280.800 C 293.380 280.800,293.200 280.091,293.200 279.224 C 293.200 278.357,293.020 277.536,292.800 277.400 C 292.580 277.264,292.400 276.443,292.400 275.576 C 292.400 274.709,292.220 274.000,292.000 274.000 C 291.780 274.000,291.600 273.205,291.600 272.232 C 291.600 269.530,290.555 268.006,288.700 268.003 C 287.875 268.001,287.200 267.820,287.200 267.600 C 287.200 267.378,286.141 267.200,284.824 267.200 C 283.517 267.200,282.336 267.020,282.200 266.800 C 282.064 266.580,281.423 266.400,280.776 266.400 C 280.129 266.400,279.600 266.220,279.600 266.000 C 279.600 265.780,279.137 265.600,278.571 265.600 C 278.006 265.600,277.273 265.330,276.943 265.000 C 276.613 264.670,275.916 264.400,275.395 264.400 C 274.874 264.400,274.336 264.220,274.200 264.000 C 273.435 262.762,259.600 263.943,259.600 265.246 C 259.600 265.441,259.152 265.600,258.605 265.600 C 256.975 265.600,256.000 266.745,256.000 268.656 C 256.000 270.242,257.047 272.792,257.700 272.797 C 257.865 272.799,258.000 273.509,258.000 274.376 C 258.000 275.243,258.180 276.064,258.400 276.200 C 258.620 276.336,258.800 276.977,258.800 277.624 C 258.800 278.271,258.980 278.800,259.200 278.800 C 259.420 278.800,259.600 279.340,259.600 280.000 C 259.600 280.660,259.780 281.200,260.000 281.200 C 260.220 281.200,260.400 281.819,260.400 282.576 C 260.400 283.333,260.580 284.064,260.800 284.200 C 261.020 284.336,261.200 285.236,261.200 286.200 C 261.200 287.164,261.380 288.064,261.600 288.200 C 261.820 288.336,262.000 288.941,262.000 289.544 C 262.000 290.147,262.164 290.811,262.365 291.020 C 262.565 291.229,262.826 292.390,262.945 293.600 C 263.063 294.810,263.343 296.880,263.566 298.200 C 263.790 299.520,264.124 301.636,264.308 302.901 C 264.492 304.167,264.858 305.418,265.121 305.681 C 265.385 305.945,265.600 307.204,265.600 308.480 C 265.600 309.760,265.779 310.800,266.000 310.800 C 266.220 310.800,266.400 311.554,266.400 312.476 C 266.400 314.036,266.359 314.099,265.813 313.376 C 265.490 312.949,265.220 312.105,265.213 311.500 C 265.206 310.895,265.020 310.400,264.800 310.400 C 264.580 310.400,264.400 309.871,264.400 309.224 C 264.400 308.577,264.220 307.936,264.000 307.800 C 263.780 307.664,263.600 306.843,263.600 305.976 C 263.600 305.109,263.420 304.400,263.200 304.400 C 262.980 304.400,262.800 303.871,262.800 303.224 C 262.800 302.577,262.620 301.936,262.400 301.800 C 262.180 301.664,262.000 301.201,262.000 300.770 C 262.000 299.662,261.065 296.800,260.703 296.800 C 260.536 296.800,260.400 296.271,260.400 295.624 C 260.400 294.977,260.220 294.336,260.000 294.200 C 259.780 294.064,259.600 293.524,259.600 293.000 C 259.600 292.476,259.420 291.936,259.200 291.800 C 258.980 291.664,258.800 291.216,258.800 290.805 C 258.800 290.394,258.530 289.787,258.200 289.457 C 257.870 289.127,257.600 288.405,257.600 287.852 C 257.600 287.299,257.420 286.736,257.200 286.600 C 256.980 286.464,256.800 285.823,256.800 285.176 C 256.800 284.529,256.620 284.000,256.400 284.000 C 256.180 284.000,256.000 283.460,256.000 282.800 C 256.000 282.140,255.820 281.600,255.600 281.600 C 255.380 281.600,255.200 281.071,255.200 280.424 C 255.200 279.777,255.020 279.136,254.800 279.000 C 254.580 278.864,254.400 278.324,254.400 277.800 C 254.400 277.276,254.220 276.736,254.000 276.600 C 253.780 276.464,253.600 276.003,253.600 275.576 C 253.600 275.149,253.420 274.800,253.200 274.800 C 252.980 274.800,252.800 274.438,252.800 273.995 C 252.800 273.176,252.681 272.874,251.383 270.412 C 250.461 268.664,248.221 266.400,247.413 266.400 C 247.076 266.400,246.800 266.220,246.800 266.000 C 246.800 265.780,246.271 265.600,245.624 265.600 C 244.977 265.600,244.349 265.442,244.230 265.248 C 243.955 264.804,240.316 263.600,239.248 263.600 C 238.808 263.600,238.336 263.420,238.200 263.200 C 238.064 262.980,237.344 262.800,236.600 262.800 C 235.856 262.800,235.136 262.620,235.000 262.400 C 234.864 262.180,234.043 262.000,233.176 262.000 C 232.309 262.000,231.600 261.820,231.600 261.600 C 231.600 261.380,230.981 261.200,230.224 261.200 C 229.467 261.200,228.736 261.020,228.600 260.800 C 228.464 260.580,227.744 260.400,227.000 260.400 C 226.256 260.400,225.536 260.220,225.400 260.000 C 225.264 259.780,224.353 259.600,223.376 259.600 C 222.399 259.600,221.600 259.420,221.600 259.200 C 221.600 258.980,220.790 258.800,219.800 258.800 C 218.810 258.800,218.000 258.620,218.000 258.400 C 218.000 258.180,216.965 257.994,215.700 257.987 C 214.315 257.980,213.091 257.741,212.624 257.387 C 211.833 256.789,210.674 256.677,209.607 257.096 M126.179 268.515 C 125.324 269.499,124.400 271.756,124.400 272.861 C 124.400 273.488,124.220 274.000,124.000 274.000 C 123.780 274.000,123.600 274.349,123.600 274.776 C 123.600 275.203,123.420 275.664,123.200 275.800 C 122.980 275.936,122.800 276.566,122.800 277.200 C 122.800 277.834,122.620 278.464,122.400 278.600 C 122.180 278.736,122.000 279.467,122.000 280.224 C 122.000 280.981,121.820 281.600,121.600 281.600 C 121.380 281.600,121.200 282.140,121.200 282.800 C 121.200 283.460,121.020 284.000,120.800 284.000 C 120.580 284.000,120.400 284.630,120.400 285.400 C 120.400 286.170,120.220 286.800,120.000 286.800 C 119.780 286.800,119.600 287.520,119.600 288.400 C 119.600 289.280,119.441 290.000,119.246 290.000 C 118.797 290.000,117.600 293.617,117.600 294.975 C 117.600 295.539,117.420 296.000,117.200 296.000 C 116.980 296.000,116.800 296.540,116.800 297.200 C 116.800 297.860,116.620 298.400,116.400 298.400 C 116.180 298.400,116.000 298.929,116.000 299.576 C 116.000 300.223,115.820 300.864,115.600 301.000 C 115.380 301.136,115.200 301.766,115.200 302.400 C 115.200 303.034,115.020 303.664,114.800 303.800 C 114.580 303.936,114.400 304.566,114.400 305.200 C 114.400 305.834,114.220 306.464,114.000 306.600 C 113.780 306.736,113.600 307.467,113.600 308.224 C 113.600 308.981,113.420 309.600,113.200 309.600 C 112.980 309.600,112.800 310.320,112.800 311.200 C 112.800 312.080,112.620 312.800,112.400 312.800 C 112.180 312.800,112.000 313.520,112.000 314.400 C 112.000 315.280,111.828 316.000,111.618 316.000 C 111.408 316.000,111.129 316.675,110.998 317.500 C 110.866 318.325,110.600 319.702,110.407 320.560 C 109.959 322.545,110.895 325.200,112.043 325.200 C 112.460 325.200,112.800 325.380,112.800 325.600 C 112.800 325.820,113.149 326.000,113.576 326.000 C 114.003 326.000,114.464 326.180,114.600 326.400 C 114.736 326.620,115.431 326.800,116.144 326.800 C 116.857 326.800,117.642 327.002,117.888 327.248 C 118.652 328.012,122.670 328.707,130.600 329.444 C 131.920 329.567,133.171 329.832,133.380 330.034 C 134.238 330.861,156.752 330.476,157.672 329.619 C 158.556 328.795,158.512 325.971,157.609 325.670 C 157.384 325.595,157.200 325.098,157.200 324.567 C 157.200 324.035,157.020 323.600,156.800 323.600 C 156.580 323.600,156.396 323.195,156.391 322.700 C 156.386 322.205,156.030 321.350,155.600 320.800 C 155.170 320.250,154.814 319.575,154.809 319.300 C 154.804 319.025,154.620 318.800,154.400 318.800 C 154.180 318.800,154.000 318.348,154.000 317.795 C 154.000 317.242,153.820 316.432,153.600 315.995 C 153.380 315.558,153.020 314.842,152.800 314.405 C 152.580 313.968,152.400 313.248,152.400 312.805 C 152.400 312.362,152.256 312.000,152.079 312.000 C 151.903 312.000,151.424 310.830,151.015 309.400 C 150.606 307.970,150.120 306.800,149.936 306.800 C 149.751 306.800,149.600 306.260,149.600 305.600 C 149.600 304.940,149.420 304.400,149.200 304.400 C 148.980 304.400,148.800 303.860,148.800 303.200 C 148.800 302.540,148.620 302.000,148.400 302.000 C 148.180 302.000,148.000 301.471,148.000 300.824 C 148.000 300.177,147.820 299.536,147.600 299.400 C 147.380 299.264,147.200 298.634,147.200 298.000 C 147.200 297.366,147.020 296.736,146.800 296.600 C 146.580 296.464,146.400 295.744,146.400 295.000 C 146.400 294.256,146.220 293.536,146.000 293.400 C 145.780 293.264,145.600 292.623,145.600 291.976 C 145.600 291.329,145.420 290.800,145.200 290.800 C 144.980 290.800,144.800 290.206,144.800 289.480 C 144.800 288.754,144.637 287.989,144.439 287.780 C 144.240 287.571,143.988 286.590,143.879 285.600 C 143.587 282.956,142.790 280.000,142.368 280.000 C 142.165 280.000,142.000 279.291,142.000 278.424 C 142.000 277.557,141.820 276.736,141.600 276.600 C 141.380 276.464,141.200 275.463,141.200 274.376 C 141.200 273.289,141.020 272.400,140.800 272.400 C 140.580 272.400,140.400 271.888,140.400 271.262 C 140.400 269.287,139.390 268.800,135.292 268.800 C 133.287 268.800,131.536 268.620,131.400 268.400 C 131.050 267.833,126.688 267.930,126.179 268.515 " stroke="none" fill="#fbfafb" fill-rule="evenodd"></path></g></svg>